<svg width="24" height="24" viewBox="0 0 24 24" fill="none" xmlns="http://www.w3.org/2000/svg">
<path d="M11.7073 8.57153C9.82848 8.57153 8.30842 10.1296 8.30842 12.0554C8.30842 13.9812 9.82848 15.5393 11.7073 15.5393C13.5862 15.5393 15.1062 13.9812 15.1062 12.0554C15.1062 10.1296 13.5862 8.57153 11.7073 8.57153ZM11.7073 13.2167C11.0842 13.2167 10.5744 12.6941 10.5744 12.0554C10.5744 11.4167 11.0842 10.8941 11.7073 10.8941C12.3304 10.8941 12.8403 11.4167 12.8403 12.0554C12.8403 12.6941 12.3304 13.2167 11.7073 13.2167ZM20.0157 8.57153C18.1369 8.57153 16.6168 10.1296 16.6168 12.0554C16.6168 13.9812 18.1369 15.5393 20.0157 15.5393C21.8946 15.5393 23.4146 13.9812 23.4146 12.0554C23.4146 10.1296 21.8946 8.57153 20.0157 8.57153ZM20.0157 13.2167C19.3926 13.2167 18.8828 12.6941 18.8828 12.0554C18.8828 11.4167 19.3926 10.8941 20.0157 10.8941C20.6389 10.8941 21.1487 11.4167 21.1487 12.0554C21.1487 12.6941 20.6389 13.2167 20.0157 13.2167ZM3.3989 8.57153C1.52006 8.57153 0 10.1296 0 12.0554C0 13.9812 1.52006 15.5393 3.3989 15.5393C5.27773 15.5393 6.7978 13.9812 6.7978 12.0554C6.7978 10.1296 5.27773 8.57153 3.3989 8.57153ZM3.3989 13.2167C2.77577 13.2167 2.26593 12.6941 2.26593 12.0554C2.26593 11.4167 2.77577 10.8941 3.3989 10.8941C4.02203 10.8941 4.53186 11.4167 4.53186 12.0554C4.53186 12.6941 4.02203 13.2167 3.3989 13.2167Z" fill="#00D573"/>
</svg>
