<svg width="150" height="177" viewBox="0 0 150 177" fill="none" xmlns="http://www.w3.org/2000/svg">
<path fill-rule="evenodd" clip-rule="evenodd" d="M76.7195 63.0305C77.9952 64.0011 78.7544 65.234 77.9261 66.6219C77.2272 67.7929 75.6232 67.8049 73.9105 67.3741C74.1672 68.1011 74.4674 68.8125 74.8097 69.5044C75.5549 71.0107 76.1795 72.0982 76.6835 72.767C77.6424 74.0396 79.4145 72.8239 81.9998 69.12C83.0203 67.6579 84.6908 66.7867 86.4739 66.7867C86.6368 66.7867 86.7994 66.8032 86.959 66.8361C88.2604 67.104 89.0982 68.3762 88.8302 69.6776C85.9576 83.63 83.6778 91.2418 81.9908 92.513C79.2908 94.5476 76.7818 103.541 76.7818 103.541L61.6257 101.343L59.9422 94.7324C59.4297 92.7203 59.3448 90.6231 59.6929 88.5761L63.4566 66.4423C63.7081 64.9634 64.1738 63.5291 64.8392 62.1846L66.2582 59.317C67.3712 57.0679 69.7349 55.7163 72.2377 55.8979L85.7776 56.88C86.9297 56.9636 87.9355 57.6917 88.3746 58.7602C89.014 60.3162 88.271 62.096 86.715 62.7355C85.4442 63.2577 82.1124 63.3561 76.7195 63.0305Z" fill="#8093B8"/>
<path fill-rule="evenodd" clip-rule="evenodd" d="M61.1539 75.3232L58.4998 79.8256C58.4687 79.8785 58.4398 79.9326 58.4133 79.988L49.0002 99.6787L50.7365 110L65.7838 98.5212L65.0121 87.2357L60.5751 90.2259L62.9719 75.9862C63.0621 75.4503 62.7008 74.9428 62.1649 74.8526C61.7629 74.7849 61.3608 74.9721 61.1539 75.3232Z" fill="#9AACD3"/>
<path fill-rule="evenodd" clip-rule="evenodd" d="M50.8331 77.6752C47.1604 76.3323 43.4878 74.9893 39.8151 73.6464C30.8094 70.3533 20.8392 74.9843 17.5462 83.9901C16.9197 85.7033 16.5672 87.5045 16.5015 89.3275L15.8191 108.263H54.7878C52.1513 87.8712 50.8331 77.6752 50.8331 77.6752Z" fill="#CBDBFE"/>
<path fill-rule="evenodd" clip-rule="evenodd" d="M49.1665 40.9329L58.0868 40.1908L59.6234 29.8726C59.6705 29.5564 59.9649 29.3383 60.2811 29.3854C60.5342 29.4231 60.7325 29.6225 60.7688 29.8759L62.4252 41.4612C62.5911 42.6214 61.7851 43.6964 60.6249 43.8623C60.6155 43.8636 60.606 43.8649 60.5966 43.8661L50.1167 45.2208C48.807 45.3901 47.6009 44.4845 47.3982 43.1795C47.2326 42.1135 47.9625 41.115 49.0286 40.9493C49.0743 40.9422 49.1203 40.9367 49.1665 40.9329Z" fill="#DFE9FF"/>
<mask id="mask0_2188_943" style="mask-type:alpha" maskUnits="userSpaceOnUse" x="16" y="0" width="41" height="79">
<path d="M26.3701 77.7486C25.7453 77.9891 25.0567 78.0921 24.345 78.0241C24.0811 77.9988 23.8197 77.9513 23.5637 77.882C21.0578 77.2033 19.5765 74.6216 20.2552 72.1157L21.3066 68.2337L21.2914 68.242C20.4682 68.6958 19.4963 68.7968 18.5974 68.5218C16.7621 67.9605 15.7295 66.0177 16.2908 64.1824L21.7795 45.0932C22.2316 42.8702 23.0406 40.1313 24.3469 36.1637L24.5001 35.6311L24.5063 35.6809C26.1148 30.8222 28.4409 24.1692 31.724 14.507C31.785 14.3274 33.5917 8.90012 33.6531 8.71955C34.0416 8.20161 34.7764 8.09664 35.2943 8.48509C35.5044 8.64265 35.6555 8.86619 35.7234 9.11986L36.9327 13.6389L38.592 1.44942C38.6926 0.710433 39.3732 0.192911 40.1122 0.293507C40.6387 0.365182 41.0743 0.738988 41.225 1.24856L41.4662 2.064L55.2831 46.9691C55.843 48.7887 56.1277 50.6818 56.1277 52.5857V70.6451C56.1277 75.0134 52.5865 78.5546 48.2182 78.5546H29.852C28.6043 78.5546 27.422 78.2651 26.3701 77.7486Z" fill="white"/>
</mask>
<g mask="url(#mask0_2188_943)">
<path d="M26.3701 77.7486C25.7453 77.9891 25.0567 78.0921 24.345 78.0241C24.0811 77.9988 23.8197 77.9513 23.5637 77.882C21.0578 77.2033 19.5765 74.6216 20.2552 72.1157L21.3066 68.2337L21.2914 68.242C20.4682 68.6958 19.4963 68.7968 18.5974 68.5218C16.7621 67.9605 15.7295 66.0177 16.2908 64.1824L21.7795 45.0932C22.2316 42.8702 23.0406 40.1313 24.3469 36.1637L24.5001 35.6311L24.5063 35.6809C26.1148 30.8222 28.4409 24.1692 31.724 14.507C31.785 14.3274 33.5917 8.90012 33.6531 8.71955C34.0416 8.20161 34.7764 8.09664 35.2943 8.48509C35.5044 8.64265 35.6555 8.86619 35.7234 9.11986L36.9327 13.6389L38.592 1.44942C38.6926 0.710433 39.3732 0.192911 40.1122 0.293507C40.6387 0.365182 41.0743 0.738988 41.225 1.24856L41.4662 2.064L55.2831 46.9691C55.843 48.7887 56.1277 50.6818 56.1277 52.5857V70.6451C56.1277 75.0134 52.5865 78.5546 48.2182 78.5546H29.852C28.6043 78.5546 27.422 78.2651 26.3701 77.7486Z" fill="#CBDBFE"/>
<path fill-rule="evenodd" clip-rule="evenodd" d="M55.6455 49.0386C55.2597 48.0098 54.681 47.5918 53.9093 47.7847C53.1376 47.9776 52.6232 48.685 52.366 49.9067C51.1767 47.9742 48.9904 46.8879 46.7319 47.1073C46.0721 47.1714 45.3458 47.2686 44.553 47.3989C39.8713 48.1682 37.6479 52.7911 37.4151 55.2119C37.2172 57.2699 37.3798 55.8954 37.4255 61.0958C37.4353 62.2149 36.8797 65.1901 35.7587 70.0213C35.2289 72.3046 36.6504 74.5851 38.9337 75.1149C39.2394 75.1858 39.5521 75.2226 39.866 75.2246C44.1197 75.2517 46.518 75.2364 47.0608 75.1785C49.9318 74.8727 50.554 74.214 52.6657 74.214C54.447 74.214 55.3151 74.6641 55.2701 75.5644C58.3539 74.3541 60.0224 71.2996 60.2755 66.4009C60.5285 61.5023 58.9852 55.7148 55.6455 49.0386Z" fill="#B0BFDC"/>
</g>
<path fill-rule="evenodd" clip-rule="evenodd" d="M46.675 70.7415H48.2184L47.7745 72.7637C47.7408 72.9172 47.6174 73.0349 47.4625 73.0613C47.2525 73.0972 47.0531 72.956 47.0173 72.7459L46.675 70.7415ZM54.1987 70.7415H55.742L55.2981 72.7637C55.2644 72.9172 55.1411 73.0349 54.9862 73.0613C54.7761 73.0972 54.5768 72.956 54.5409 72.7459L54.1987 70.7415Z" fill="white"/>
<mask id="mask1_2188_943" style="mask-type:alpha" maskUnits="userSpaceOnUse" x="79" y="105" width="69" height="67">
<path d="M117.301 125.639C121.573 115.136 124.509 109.308 126.109 108.154C128.07 106.741 130.297 107.084 131.238 108.248C134.341 105.241 137.413 105.177 140.455 108.056C140.718 108.233 140.958 108.412 141.176 108.591C142.219 108.579 143.274 108.782 144.341 109.203C149.702 111.313 148.95 115.677 142.086 122.295L122.452 144.891C120.121 147.574 117.087 149.554 113.686 150.612C112.81 150.885 111.691 151.805 110.33 153.371C109.12 154.763 108.464 155.809 108.36 156.509C107.824 160.13 106.268 163.516 103.873 166.273L101.357 169.168C101.152 169.404 100.932 169.626 100.697 169.833C97.7468 172.436 93.2258 172.14 90.5995 169.171L85.9821 163.953L85.9459 163.986L85.8914 163.851L85.0061 162.85L85.3525 162.508L79.5713 148.109L103.936 125.54L117.05 125.973C117.134 125.861 117.217 125.75 117.301 125.639Z" fill="white"/>
</mask>
<g mask="url(#mask1_2188_943)">
<path d="M117.3 125.639C121.573 115.136 124.509 109.308 126.109 108.155C128.07 106.741 130.297 107.084 131.238 108.248C134.34 105.242 137.413 105.178 140.455 108.056C140.718 108.233 140.958 108.412 141.176 108.591C142.219 108.579 143.274 108.783 144.341 109.203C149.702 111.313 148.95 115.678 142.086 122.296L122.452 144.891C120.12 147.574 117.086 149.555 113.686 150.613C112.81 150.885 111.691 151.805 110.33 153.371C109.12 154.763 108.464 155.809 108.36 156.51C107.824 160.13 106.268 163.517 103.873 166.273L101.357 169.168C101.152 169.404 100.931 169.626 100.697 169.833C97.7465 172.436 93.2256 172.14 90.5993 169.172L85.9819 163.953L85.9457 163.987L85.8912 163.851L85.0058 162.85L85.3522 162.509L79.571 148.11L103.936 125.54L117.049 125.973C117.133 125.862 117.217 125.75 117.3 125.639Z" fill="#8093B8"/>
</g>
<mask id="mask2_2188_943" style="mask-type:alpha" maskUnits="userSpaceOnUse" x="38" y="60" width="11" height="6">
<path d="M45.7103 60.0347H41.4662C39.9746 60.0347 38.7654 61.2439 38.7654 62.7355C38.7654 64.2271 39.9746 65.4363 41.4662 65.4363H45.7103C47.2019 65.4363 48.4111 64.2271 48.4111 62.7355C48.4111 61.2439 47.2019 60.0347 45.7103 60.0347Z" fill="white"/>
</mask>
<g mask="url(#mask2_2188_943)">
<path d="M45.7103 60.0347H41.4662C39.9746 60.0347 38.7654 61.2439 38.7654 62.7355C38.7654 64.2271 39.9746 65.4363 41.4662 65.4363H45.7103C47.2019 65.4363 48.4111 64.2271 48.4111 62.7355C48.4111 61.2439 47.2019 60.0347 45.7103 60.0347Z" fill="white"/>
<path d="M48.5075 62.1565C48.5075 60.9845 47.5575 60.0344 46.3855 60.0344C45.2135 60.0344 44.2634 60.9845 44.2634 62.1565V63.314C44.2634 64.4859 45.2135 65.436 46.3855 65.436C47.5575 65.436 48.5075 64.4859 48.5075 63.314V62.1565Z" fill="#2B2B2B"/>
</g>
<mask id="mask3_2188_943" style="mask-type:alpha" maskUnits="userSpaceOnUse" x="53" y="60" width="4" height="6">
<path d="M56.1278 60.0347V65.4363C54.6894 65.4363 53.5234 64.2703 53.5234 62.8319V62.639C53.5234 61.2007 54.6894 60.0347 56.1278 60.0347Z" fill="white"/>
</mask>
<g mask="url(#mask3_2188_943)">
<path d="M56.1278 60.0347V65.4363C54.6894 65.4363 53.5234 64.2703 53.5234 62.8319V62.639C53.5234 61.2007 54.6894 60.0347 56.1278 60.0347Z" fill="white"/>
<path d="M59.2143 62.1565C59.2143 60.9845 58.2643 60.0344 57.0923 60.0344C55.9203 60.0344 54.9702 60.9845 54.9702 62.1565V63.314C54.9702 64.4859 55.9203 65.436 57.0923 65.436C58.2643 65.436 59.2143 64.4859 59.2143 63.314V62.1565Z" fill="#2B2B2B"/>
</g>
<path fill-rule="evenodd" clip-rule="evenodd" d="M98.9652 141.734C102.075 141.255 104.703 139.174 105.882 136.257L105.91 136.188C107.118 133.199 106.777 129.807 105 127.117L104.077 125.722C107.46 126.952 111.199 125.207 112.429 121.825C112.458 121.746 112.485 121.666 112.51 121.586L113.627 118.102C108.065 118.639 104.143 118.253 101.859 116.944C99.575 115.636 97.6459 114.028 96.0715 112.122L94.2388 115.208L98.9652 141.734Z" fill="#9AACD3"/>
<mask id="mask4_2188_943" style="mask-type:alpha" maskUnits="userSpaceOnUse" x="53" y="141" width="82" height="31">
<path d="M104.068 155.401C114.818 151.757 121.155 150.159 123.079 150.608C125.438 151.158 126.643 153.054 126.381 154.52C130.694 154.888 132.763 157.153 132.587 161.315L131.994 161.553C133.016 162.442 133.777 163.584 134.275 164.98C136.204 170.382 132.41 172.664 122.893 171.829H92.8986C89.3369 171.829 85.8447 170.842 82.8089 168.98C82.0267 168.5 80.5957 168.26 78.5161 168.26C76.6683 168.26 75.4456 168.449 74.8481 168.828C71.7581 170.788 68.1745 171.829 64.5155 171.829H60.6723C60.3591 171.829 60.0463 171.808 59.7358 171.767C55.8278 171.25 53.079 167.662 53.5962 163.754L54.5056 156.883L54.4567 156.878L54.5235 156.748L54.6978 155.431L55.184 155.468L62.2697 141.734L95.3546 145.303L103.65 155.431C103.79 155.421 103.929 155.411 104.068 155.401Z" fill="white"/>
</mask>
<g mask="url(#mask4_2188_943)">
<path d="M104.068 155.401C114.818 151.757 121.155 150.159 123.079 150.608C125.438 151.158 126.643 153.054 126.381 154.52C130.694 154.888 132.763 157.153 132.587 161.315L131.994 161.553C133.016 162.442 133.777 163.584 134.275 164.98C136.204 170.382 132.41 172.664 122.893 171.829H92.8986C89.3369 171.829 85.8447 170.842 82.8089 168.98C82.0267 168.5 80.5957 168.26 78.5161 168.26C76.6683 168.26 75.4456 168.449 74.8481 168.828C71.7581 170.788 68.1745 171.829 64.5155 171.829H60.6723C60.3591 171.829 60.0463 171.808 59.7358 171.767C55.8278 171.25 53.079 167.662 53.5962 163.754L54.5056 156.883L54.4567 156.878L54.5235 156.748L54.6978 155.431L55.184 155.468L62.2697 141.734L95.3546 145.303L103.65 155.431C103.79 155.421 103.929 155.411 104.068 155.401Z" fill="#B0BFDC"/>
<path d="M132.944 161.189C132.868 161.081 132.721 160.907 132.494 160.69C132.126 160.338 131.663 159.988 131.1 159.662C128.416 158.113 124.522 157.653 119.228 158.914C119.021 158.963 118.893 159.171 118.942 159.378C118.992 159.586 119.2 159.714 119.407 159.664C124.515 158.448 128.208 158.884 130.714 160.331C131.223 160.624 131.636 160.937 131.961 161.248C132.072 161.354 132.164 161.452 132.238 161.539C132.279 161.588 132.304 161.62 132.313 161.633C132.435 161.807 132.676 161.849 132.85 161.727C133.025 161.604 133.067 161.364 132.944 161.189Z" fill="#7181A1"/>
<path d="M134.107 164.498C134.32 164.498 134.493 164.67 134.493 164.883C134.493 165.097 134.32 165.269 134.107 165.269C133.542 165.269 130.88 164.658 129.043 164.056C127.85 163.666 126.932 163.272 126.372 162.88C125.572 162.323 125.404 161.617 126.173 161.092C127.708 160.046 129.908 160.046 132.757 161.047C132.958 161.118 133.063 161.338 132.993 161.539C132.922 161.74 132.702 161.846 132.501 161.775C129.861 160.847 127.902 160.847 126.608 161.73C126.38 161.885 126.397 161.957 126.813 162.248C127.296 162.585 128.157 162.954 129.284 163.323C131.047 163.901 133.646 164.498 134.107 164.498ZM129.349 154.08C129.562 154.08 129.735 154.253 129.735 154.466C129.735 154.679 129.562 154.852 129.349 154.852C128.719 154.852 128.269 154.803 127.343 154.662L127.317 154.658C125.999 154.457 125.356 154.418 124.337 154.553C122.979 154.732 121.332 155.254 119.159 156.243C118.965 156.331 118.736 156.246 118.648 156.052C118.559 155.858 118.645 155.629 118.839 155.541C121.076 154.522 122.794 153.978 124.236 153.788C125.343 153.641 126.049 153.684 127.433 153.895L127.46 153.899C128.349 154.035 128.769 154.08 129.349 154.08Z" fill="#7181A1"/>
</g>
<path fill-rule="evenodd" clip-rule="evenodd" d="M52.1422 57.4358L54.8882 66.0334C55.1715 66.9205 54.6821 67.8693 53.795 68.1526C53.6386 68.2026 53.4757 68.2294 53.3115 68.2323L52.4148 68.2479C51.6691 68.261 51.054 67.667 51.041 66.9213C51.0409 66.9148 51.0408 66.9084 51.0408 66.9019L51.0122 57.6137C51.0112 57.294 51.2695 57.0341 51.5891 57.0331C51.8416 57.0324 52.0654 57.1953 52.1422 57.4358Z" fill="#7181A1"/>
<mask id="mask5_2188_943" style="mask-type:alpha" maskUnits="userSpaceOnUse" x="9" y="86" width="95" height="70">
<path d="M16.7836 103.826L9.91707 134.397C8.04915 142.713 13.2766 150.969 21.5929 152.837C22.703 153.086 23.8373 153.212 24.9751 153.212H40.7467C47.9508 153.212 54.5547 149.198 57.8717 142.803L64.5299 129.966L54.6912 155.431H59.2134C64.1566 155.431 68.8295 153.175 71.9036 149.303L74.8508 145.592V149.065C74.8508 152.581 77.701 155.431 81.217 155.431C85.0384 155.431 88.4509 153.039 89.754 149.446L91.1521 145.592L92.7064 148.583C94.8925 152.791 99.2395 155.431 103.981 155.431C99.4833 142.014 96.9111 131.243 96.2643 123.118C95.6175 114.993 96.357 102.742 98.4828 86.3674H79.3843L44.9491 107.009L16.7836 103.826Z" fill="white"/>
</mask>
<g mask="url(#mask5_2188_943)">
<path d="M16.7836 103.826L9.91707 134.397C8.04915 142.713 13.2766 150.969 21.5929 152.837C22.703 153.086 23.8373 153.212 24.9751 153.212H40.7467C47.9508 153.212 54.5547 149.198 57.8717 142.803L64.5299 129.966L54.6912 155.431H59.2134C64.1566 155.431 68.8295 153.175 71.9036 149.303L74.8508 145.592V149.065C74.8508 152.581 77.701 155.431 81.217 155.431C85.0384 155.431 88.4509 153.039 89.754 149.446L91.1521 145.592L92.7064 148.583C94.8925 152.791 99.2395 155.431 103.981 155.431C99.4833 142.014 96.9111 131.243 96.2643 123.118C95.6175 114.993 96.357 102.742 98.4828 86.3674H79.3843L44.9491 107.009L16.7836 103.826Z" fill="#9AACD3"/>
</g>
<path d="M39.7133 72.6541C40.7374 71.6301 41.5063 71.1274 41.9484 71.1274H55.9347C56.1478 71.1274 56.3205 70.9546 56.3205 70.7415C56.3205 70.5285 56.1478 70.3557 55.9347 70.3557H41.9484C41.2331 70.3557 40.33 70.9462 39.1677 72.1085C39.017 72.2592 39.017 72.5035 39.1677 72.6541C39.3184 72.8048 39.5627 72.8048 39.7133 72.6541Z" fill="#7181A1"/>
<mask id="mask6_2188_943" style="mask-type:alpha" maskUnits="userSpaceOnUse" x="39" y="60" width="10" height="6">
<path d="M48.0498 61.3851H39.1267C39.5937 60.5778 40.4665 60.0347 41.4662 60.0347H45.7103C46.71 60.0347 47.5828 60.5778 48.0498 61.3851V61.3851ZM47.927 64.2788C47.439 64.9785 46.6281 65.4363 45.7103 65.4363H41.4662C40.5484 65.4363 39.7375 64.9785 39.2495 64.2788H47.927Z" fill="white"/>
</mask>
<g mask="url(#mask6_2188_943)">
<path d="M48.0498 61.3851H39.1267C39.5937 60.5778 40.4665 60.0347 41.4662 60.0347H45.7103C46.71 60.0347 47.5828 60.5778 48.0498 61.3851V61.3851ZM47.927 64.2788C47.439 64.9785 46.6281 65.4363 45.7103 65.4363H41.4662C40.5484 65.4363 39.7375 64.9785 39.2495 64.2788H47.927Z" fill="#7181A1"/>
</g>
<path fill-rule="evenodd" clip-rule="evenodd" d="M97.4896 76.6276L81.1503 86.8118L104.781 91.1482L115.21 83.419C117.426 81.7768 119.191 79.6093 120.335 77.1223L123.2 70.8993C124.143 68.8488 124.061 66.4951 122.977 64.5482L121.404 61.7222L121.325 61.7715C121.033 60.0705 120.687 58.047 120.285 55.701C120.063 54.4076 119.267 53.2891 118.114 52.6505L117.035 52.0528L115.165 51.1814L115.008 49.5272L103.93 39.869C103.897 39.8406 103.864 39.8128 103.83 39.7858C102.495 38.7186 100.519 38.9376 99.4158 40.2749C98.4251 41.476 98.3573 43.1296 99.1607 44.3595C98.2987 44.5375 97.5223 45.0985 97.1071 45.9446C97.0472 46.0668 96.996 46.1929 96.9539 46.322C96.3714 48.1108 97.2444 50.0221 98.9757 50.7482L108.442 54.7186C108.97 60.3567 109.235 63.1758 109.235 63.1758C109.235 63.1758 99.6175 70.3216 96.8012 70.8358C94.9236 71.1787 93.4937 70.7615 92.5115 69.5843L96.588 57.8718C96.5997 57.838 96.6109 57.804 96.6216 57.7699C97.1725 56.007 96.1801 54.161 94.405 53.6468C92.5489 53.1092 90.5713 54.1342 89.9405 55.9607C86.1879 66.8283 84.4827 73.2672 84.825 75.2776C85.3881 78.5846 80.9906 86.8672 80.9906 86.8672L97.4896 76.6276Z" fill="#B0BFDC"/>
<mask id="mask7_2188_943" style="mask-type:alpha" maskUnits="userSpaceOnUse" x="53" y="60" width="4" height="6">
<path d="M56.1278 61.3851H53.7883C54.2553 60.5778 55.1281 60.0347 56.1278 60.0347V61.3851ZM56.1278 65.4363C55.21 65.4363 54.3992 64.9785 53.9111 64.2788H56.1278V65.4363Z" fill="white"/>
</mask>
<g mask="url(#mask7_2188_943)">
<path d="M56.1278 61.3851H53.7883C54.2553 60.5778 55.1281 60.0347 56.1278 60.0347V61.3851ZM56.1278 65.4363C55.21 65.4363 54.3992 64.9785 53.9111 64.2788H56.1278V65.4363Z" fill="#7181A1"/>
</g>
<path fill-rule="evenodd" clip-rule="evenodd" d="M106.467 35.2541L93.6524 34.8745C92.2798 34.8338 91.0952 35.8296 90.8993 37.1887L86.7853 65.7256L102.805 67.7247L105.317 65.9845L109.063 38.3161C109.263 36.838 108.227 35.4775 106.749 35.2774C106.656 35.2647 106.561 35.2569 106.467 35.2541Z" fill="#2B2B2B"/>
<path d="M96.3608 65.2434C95.2421 65.2434 94.3352 64.3365 94.3352 63.2178C94.3352 62.0991 95.2421 61.1922 96.3608 61.1922C97.4795 61.1922 98.3864 62.0991 98.3864 63.2178C98.3864 64.3365 97.4795 65.2434 96.3608 65.2434ZM96.3608 64.4717C97.0533 64.4717 97.6148 63.9103 97.6148 63.2178C97.6148 62.5252 97.0533 61.9638 96.3608 61.9638C95.6683 61.9638 95.1069 62.5252 95.1069 63.2178C95.1069 63.9103 95.6683 64.4717 96.3608 64.4717ZM101.736 36.4694C101.792 36.4714 101.823 36.4689 101.837 36.4652C101.837 36.4654 101.836 36.4653 101.842 36.4605C101.864 36.4426 101.887 36.4061 101.908 36.349C101.939 36.2649 101.952 36.1793 101.96 35.9474L101.961 35.9176L102.193 34.9718L102.755 35.1097L102.537 35.9978C102.526 36.2648 102.505 36.4016 102.452 36.546C102.398 36.6947 102.318 36.818 102.21 36.907C102.077 37.0166 101.939 37.0556 101.716 37.0478L97.8846 36.914C97.6618 36.9063 97.5263 36.8576 97.4014 36.739C97.3 36.6428 97.2283 36.5142 97.185 36.3621C97.1414 36.209 97.1298 36.0662 97.1398 35.7791L97.1408 35.7493L97.3729 34.8035L97.9349 34.9414L97.7172 35.8289C97.7107 36.0387 97.7182 36.1213 97.7416 36.2035C97.7582 36.2619 97.7795 36.3 97.7999 36.3194C97.8054 36.3246 97.8049 36.3246 97.8039 36.3241C97.8174 36.3289 97.8487 36.3337 97.9048 36.3357L101.736 36.4694Z" fill="white"/>
<mask id="mask8_2188_943" style="mask-type:alpha" maskUnits="userSpaceOnUse" x="0" y="153" width="53" height="19">
<path d="M11.2382 159.505L0 171.829H52.2798L46.9682 162.757C43.5071 156.845 37.1706 153.212 30.3203 153.212H25.4926C20.0677 153.212 14.8935 155.497 11.2382 159.505Z" fill="white"/>
</mask>
<g mask="url(#mask8_2188_943)">
<path d="M11.2382 159.505L0 171.829H52.2798L46.9682 162.757C43.5071 156.845 37.1706 153.212 30.3203 153.212H25.4926C20.0677 153.212 14.8935 155.497 11.2382 159.505Z" fill="#DFE9FF"/>
<path d="M6.27417 163.104L6.90102 162.429C11.4138 166.663 16.1536 168.77 21.1338 168.77C25.1307 168.77 29.5668 166.843 32.4672 163.593C35.9154 159.73 37.012 154.395 35.0871 147.967L35.9668 147.701C37.9826 154.432 36.817 160.103 33.151 164.21C30.0737 167.658 25.3878 169.693 21.1338 169.693C15.9062 169.693 10.9485 167.49 6.27417 163.104ZM46.5104 160.866L46.86 161.765C41.2757 163.936 38.9704 167.485 39.8299 172.519L38.8791 172.682C37.938 167.17 40.5199 163.195 46.5104 160.866Z" fill="white"/>
<path d="M7.62476 159.387C11.5283 163.035 15.6728 164.87 20.0447 164.87C23.6071 164.87 27.5281 163.174 30.104 160.299C33.1724 156.874 34.1479 152.147 32.4632 146.543L31.5804 146.807C33.1749 152.11 32.2679 156.506 29.4163 159.688C27.0179 162.365 23.3481 163.953 20.0447 163.953C15.9221 163.953 11.997 162.215 8.25548 158.718L7.62476 159.387Z" fill="white"/>
</g>
<path fill-rule="evenodd" clip-rule="evenodd" d="M57.0923 47.0129C57.9605 50.4854 57.0923 52.1252 54.1986 52.1252C52.2695 52.1252 50.3403 51.2249 48.4112 49.4244C49.4401 51.2249 48.8613 52.1252 46.675 52.1252C43.3954 52.1252 42.9131 50.0882 42.9131 49.9067C42.9131 49.7251 42.7947 46.6256 43.4919 45.9519C43.8502 45.6057 45.4917 45.6057 48.4165 45.9519C53.6216 44.3443 56.5136 44.698 57.0923 47.0129Z" fill="#CBDBFE"/>
<path fill-rule="evenodd" clip-rule="evenodd" d="M33.8641 56.4895C34.7322 59.962 33.8641 61.6017 30.9703 61.6017C29.0412 61.6017 27.1121 60.7015 25.1829 58.9009C26.2118 60.7015 25.6331 61.6017 23.4467 61.6017C20.1671 61.6017 19.6849 59.5648 19.6849 59.3832C19.6849 59.2017 19.5665 56.1021 20.2636 55.4285C20.6219 55.0822 22.2634 55.0822 25.1882 55.4285C30.3934 53.8209 33.2853 54.1745 33.8641 56.4895Z" fill="#CBDBFE"/>
<path fill-rule="evenodd" clip-rule="evenodd" d="M80.4117 85.669C80.4117 85.669 85.2208 77.6129 84.8265 74.2708C84.5867 72.2391 86.6151 65.8835 90.9117 55.204C91.6338 53.409 93.6597 52.4896 95.485 53.1285C97.3471 53.7803 98.4059 55.7129 97.9503 57.6287L95.4939 67.9574C95.2268 69.0804 95.9275 70.1938 97.0589 70.4441C97.2578 70.4881 97.4626 70.5031 97.6666 70.4887" fill="#B0BFDC"/>
<path fill-rule="evenodd" clip-rule="evenodd" d="M45.8514 58.0605L39.4636 59.207C39.3587 59.2258 39.2584 59.1561 39.2396 59.0512C39.2341 59.0208 39.2361 58.9895 39.2452 58.96L39.5852 57.8645C39.8524 57.0036 40.5723 56.3601 41.4577 56.1908L43.7163 55.759L44.7457 56.2729L44.7176 55.5676L45.2511 55.4656C45.8797 55.3455 46.4866 55.7576 46.6067 56.3861C46.6178 56.4442 46.6245 56.5031 46.6266 56.5623L46.645 57.0767C46.6621 57.5564 46.3239 57.9757 45.8514 58.0605ZM54.3062 55.8161C53.8991 55.6866 53.6256 55.3047 53.6343 54.8775L53.6518 54.005C53.6535 53.9219 53.6679 53.8395 53.6946 53.7608C53.8385 53.3363 54.2993 53.1088 54.7238 53.2526L54.708 53.9579L55.2886 53.4441L56.0294 53.6951C56.8585 53.9761 57.4681 54.6872 57.619 55.5495L57.809 56.6345C57.8143 56.6651 57.8122 56.6966 57.8028 56.7262C57.7705 56.8278 57.662 56.8839 57.5604 56.8516L54.3062 55.8161Z" fill="#CBDBFE"/>
<path fill-rule="evenodd" clip-rule="evenodd" d="M50.686 77.559L53.9551 75.8208L54.3503 78.9689C54.4271 79.5808 54.234 80.1959 53.8211 80.654C53.0365 81.5245 51.6947 81.5942 50.8241 80.8096L50.0904 80.1484L49.698 81.8541C49.5061 82.6883 48.9764 83.4054 48.2354 83.834C46.7598 84.6875 44.8716 84.1832 44.0181 82.7076L42.4476 79.9925L40.3731 84.2886C39.9659 85.1321 39.1977 85.7449 38.2848 85.9547C36.6234 86.3365 34.9671 85.2991 34.5854 83.6377L33.6745 79.6737L32.1611 82.0191C31.6545 82.8043 30.8194 83.3178 29.89 83.4154C28.1946 83.5935 26.6759 82.3635 26.4978 80.6681L26.1125 77.0006C29.2511 76.7201 31.4431 76.7236 32.6886 77.0112C33.0144 77.0864 33.2894 77.1843 33.5135 77.3048C34.2409 76.973 35.252 76.8751 36.5469 77.0112C37.7178 77.1342 39.3028 77.4678 41.3019 78.0117L41.1108 77.6813L51.0189 76.112L50.686 77.559Z" fill="#CBDBFE"/>
<path d="M34.2366 83.7571C34.666 85.6262 36.5294 86.7932 38.3985 86.3637C39.4254 86.1277 40.2896 85.4382 40.7478 84.4894L42.5056 80.8491L43.7113 82.9337C44.6715 84.5938 46.7957 85.1611 48.4558 84.2009C49.2894 83.7187 49.8854 82.912 50.1012 81.9735L50.3466 80.9071L50.593 81.1292C50.7513 81.2718 50.9953 81.2591 51.1379 81.1009C51.2806 80.9426 51.2679 80.6986 51.1096 80.5559L50.3759 79.8947C50.1573 79.6977 49.8076 79.808 49.7416 80.0948L49.3492 81.8005C49.1813 82.5305 48.7178 83.1579 48.0694 83.5329C46.7782 84.2798 45.1261 83.8385 44.3793 82.5473L42.8088 79.8322C42.6538 79.5642 42.2621 79.5788 42.1274 79.8577L40.0529 84.1538C39.6966 84.8918 39.0244 85.4281 38.2257 85.6116C36.7719 85.9457 35.3227 85.038 34.9886 83.5843L34.0777 79.6203C34.0013 79.2877 33.5625 79.2108 33.3775 79.4975L31.8641 81.8429C31.4208 82.53 30.6901 82.9792 29.8769 83.0646C28.3935 83.2204 27.0646 82.1442 26.9087 80.6607L26.5235 76.9933C26.5012 76.7813 26.3114 76.6276 26.0995 76.6498C25.8875 76.6721 25.7338 76.862 25.756 77.0739L26.1413 80.7413C26.3417 82.6486 28.0502 84.0324 29.9575 83.832C31.0031 83.7222 31.9426 83.1446 32.5125 82.2613L33.5304 80.6839L34.2366 83.7571Z" fill="#B0BFDC"/>
<path fill-rule="evenodd" clip-rule="evenodd" d="M26.9819 43.006L18.1233 44.2895L14.305 34.5814C14.188 34.2839 13.852 34.1376 13.5546 34.2546C13.3164 34.3483 13.1681 34.5873 13.1898 34.8423L14.1819 46.5033C14.2812 47.6711 15.3084 48.5372 16.4762 48.4378C16.4857 48.437 16.4952 48.4362 16.5046 48.4352L27.0206 47.3977C28.3349 47.268 29.3063 46.1144 29.2103 44.7972C29.1319 43.7212 28.196 42.9125 27.12 42.9909C27.0738 42.9943 27.0278 42.9993 26.9819 43.006Z" fill="#DFE9FF"/>
<path fill-rule="evenodd" clip-rule="evenodd" d="M22.275 76.3859L43.7915 106.141L80.2743 76.3864C80.7095 76.0315 81.1635 75.7002 81.6344 75.3942L84.9909 73.2125C86.0178 72.5449 87.3586 72.6183 88.3065 73.3939C89.3369 74.2369 90.05 75.4051 90.329 76.7068L90.4768 77.3969L93.0726 76.1255C94.3641 75.4929 95.924 76.0271 96.5566 77.3187C96.9115 78.0433 96.9104 78.8916 96.5536 79.6154L99.7702 79.0663C100.261 78.9825 100.759 78.9549 101.256 78.9838L109.09 79.4408C110.472 79.5215 111.528 80.7078 111.447 82.0905C111.439 82.2389 111.417 82.3863 111.382 82.5309L110.392 86.648C110.299 87.0332 110.109 87.3883 109.84 87.6791L102.546 95.56C102.088 96.0545 101.599 96.5189 101.082 96.9502L44.3202 144.251C42.7926 145.524 40.5668 145.5 39.0668 144.195L21.4823 128.888C19.1713 126.877 17.8445 123.963 17.8445 120.899L16.9311 121.636C15.7275 122.606 14.0028 122.581 12.8288 121.574C11.5899 120.512 11.0669 118.836 11.4821 117.258L12.25 114.34L11.2801 115.154C10.1679 116.086 8.51002 115.941 7.57718 114.829C7.5754 114.827 7.57362 114.824 7.57185 114.822C6.52076 113.561 6.18829 111.85 6.69071 110.286L7.62007 107.395L6.39508 108.212C5.26037 108.968 3.74746 108.807 2.79721 107.829C1.80979 106.813 1.55223 105.292 2.14981 104.007L14.6562 77.1148C15.6896 74.8929 18.3285 73.9293 20.5505 74.9626C21.2374 75.2821 21.8311 75.7721 22.275 76.3859Z" fill="#CBDBFE"/>
<path d="M34.853 93.2916C34.7351 93.1141 34.4957 93.0657 34.3182 93.1836C34.1407 93.3015 34.0923 93.541 34.2102 93.7185L42.602 106.354C42.7252 106.54 42.9795 106.583 43.1569 106.448L47.9797 102.783C48.1494 102.654 48.1824 102.412 48.0534 102.242C47.9245 102.072 47.6825 102.039 47.5128 102.168L43.0173 105.585L34.853 93.2916Z" fill="#B0BFDC"/>
<path d="M100.012 140.858C99.9959 140.802 99.8516 140.323 99.8003 140.149C99.6653 139.693 99.5312 139.223 99.3883 138.7C98.9849 137.223 98.5926 135.612 98.225 133.857C96.7544 126.836 96.0713 119.507 96.6038 112.302C96.6195 112.089 96.46 111.904 96.2475 111.889C96.035 111.873 95.85 112.033 95.8343 112.245C95.2958 119.53 95.9854 126.929 97.4697 134.015C97.8407 135.786 98.2365 137.411 98.6439 138.903C98.7883 139.432 98.9239 139.907 99.0603 140.368C99.1135 140.548 99.2553 141.019 99.2688 141.067C99.3266 141.272 99.5397 141.392 99.7448 141.334C99.9499 141.276 100.069 141.063 100.012 140.858Z" fill="#CBDBFE"/>
<path d="M36.7733 14.0904L39.8769 23.1186C39.9462 23.3202 40.1657 23.4274 40.3672 23.3581C40.5688 23.2888 40.676 23.0693 40.6067 22.8678L37.5031 13.8396C37.4338 13.6381 37.2143 13.5309 37.0127 13.6001C36.8112 13.6694 36.704 13.8889 36.7733 14.0904Z" fill="#7181A1"/>
<mask id="mask9_2188_943" style="mask-type:alpha" maskUnits="userSpaceOnUse" x="23" y="56" width="9" height="11">
<path d="M29.5705 66.7723C25.4185 66.6 23.3425 64.8891 23.3425 61.6394C23.3425 58.2967 25.5391 56.5433 29.9322 56.3792C29.8225 56.5845 29.7415 56.8628 29.7087 57.2375C29.5998 58.4829 30.1888 59.0955 31.4758 59.0755C29.2392 60.8291 28.1036 62.4028 28.0689 63.7966C28.0385 65.0189 28.5728 66.12 29.5705 66.7723Z" fill="white"/>
</mask>
<g mask="url(#mask9_2188_943)">
<path d="M29.5705 66.7723C25.4185 66.6 23.3425 64.8891 23.3425 61.6394C23.3425 58.2967 25.5391 56.5433 29.9322 56.3792C29.8225 56.5845 29.7415 56.8628 29.7087 57.2375C29.5998 58.4829 30.1888 59.0955 31.4758 59.0755C29.2392 60.8291 28.1036 62.4028 28.0689 63.7966C28.0385 65.0189 28.5728 66.12 29.5705 66.7723Z" fill="#B0BFDC"/>
</g>
<path d="M114.307 50.1644C114.272 49.9543 114.413 49.755 114.623 49.7194C114.833 49.6837 115.032 49.8251 115.068 50.0352L117.203 62.6084C117.517 64.4578 116.849 66.3378 115.439 67.5744L110.505 71.8998C110.345 72.0403 110.101 72.0243 109.961 71.8641C109.82 71.7038 109.836 71.4601 109.996 71.3196L114.93 66.9942C116.139 65.9342 116.712 64.3228 116.442 62.7376L114.307 50.1644ZM120.769 62.1206C120.736 61.9101 120.88 61.7126 121.09 61.6793C121.301 61.6461 121.498 61.7898 121.531 62.0003L122.095 65.5725C122.306 66.9065 122.009 68.2711 121.264 69.3972L117.614 74.9094C117.496 75.087 117.257 75.1357 117.079 75.018C116.901 74.9004 116.853 74.661 116.97 74.4833L120.62 68.9711C121.259 68.0059 121.514 66.8363 121.333 65.6928L120.769 62.1206ZM108.597 54.3388C108.653 54.5444 108.532 54.7565 108.327 54.8126C108.121 54.8686 107.909 54.7474 107.853 54.5419L107.274 52.4198C107.218 52.2142 107.339 52.0021 107.545 51.946C107.75 51.89 107.963 52.0112 108.019 52.2168L108.597 54.3388ZM92.8887 53.2687C92.8965 53.0557 93.0754 52.8895 93.2884 52.8973C93.5013 52.9051 93.6676 53.0841 93.6598 53.297C93.5252 56.9626 92.1341 59.1189 89.4908 59.6417C89.2818 59.683 89.0788 59.5471 89.0374 59.338C88.9961 59.129 89.132 58.926 89.3411 58.8847C91.585 58.4409 92.766 56.6104 92.8887 53.2687Z" fill="#7181A1"/>
</svg>
