<svg width="24" height="24" viewBox="0 0 24 24" fill="none" xmlns="http://www.w3.org/2000/svg">
<path d="M12.2765 22.0928L13.2046 21.1647C13.4243 20.945 13.4243 20.5889 13.2046 20.3692L5.9329 13.0975H21.9375C22.2481 13.0975 22.5 12.8456 22.5 12.535V11.2225C22.5 10.9119 22.2481 10.66 21.9375 10.66H5.9329L13.2046 3.38829C13.4243 3.16863 13.4243 2.81248 13.2046 2.59277L12.2765 1.66474C12.0569 1.44509 11.7007 1.44509 11.481 1.66474L1.66474 11.481C1.44509 11.7007 1.44509 12.0568 1.66474 12.2765L11.481 22.0928C11.7007 22.3125 12.0568 22.3125 12.2765 22.0928Z" fill="black"/>
</svg>
