<svg width="106" height="106" viewBox="0 0 106 106" fill="none" xmlns="http://www.w3.org/2000/svg">
<rect width="106" height="106" fill="#C4C4DE"/>
<path opacity="0.5" d="M37.7498 76.7212C42.1723 78.9843 47.1377 80.1616 52.1031 80.2592C52.3471 80.2592 52.646 80.2592 52.89 80.2592C57.9042 80.2592 62.8696 79.1795 67.3897 77.014C71.5194 75.0498 75.2526 72.0974 78.0098 68.413C81.1574 64.1857 82.78 59.1227 82.78 53.8645C82.78 50.5217 82.78 47.2277 82.78 43.8849C82.78 40.2493 82.78 36.6564 82.78 33.0208C82.78 31.7398 82.78 30.4649 82.78 29.2327C82.78 26.9208 80.4681 25.3958 78.3575 26.2315L67.1518 30.9041C66.4137 31.1969 65.578 31.2457 64.8399 30.9529C61.1982 29.5255 57.1661 28.7874 52.89 28.7874C48.6139 28.7874 44.5818 29.5743 40.9462 30.9529C40.2081 31.2457 39.3724 31.1969 38.6343 30.9041L27.4225 26.384C25.3119 25.4995 23 27.0733 23 29.3791C23 31.0993 23 32.8683 23 34.5885C23 38.1753 23 41.7682 23 45.4038C23 48.4538 23 51.4489 23 54.4989C23 59.3667 24.5738 64.0881 27.3737 68.0165C30.0272 71.707 33.6689 74.6594 37.7498 76.7212ZM63.8029 53.9621C66.5052 53.9621 68.7195 56.1764 68.7195 58.8787C68.7195 61.581 66.5052 63.7953 63.8029 63.7953C61.1006 63.7953 58.8863 61.581 58.8863 58.8787C58.8863 56.1276 61.1006 53.9621 63.8029 53.9621ZM41.9771 53.9621C44.6794 53.9621 46.8937 56.1764 46.8937 58.8787C46.8937 61.581 44.6794 63.7953 41.9771 63.7953C39.2748 63.7953 37.0605 61.581 37.0605 58.8787C37.0605 56.1276 39.2748 53.9621 41.9771 53.9621Z" fill="#8B8BB5"/>
</svg>
