<svg width="24" height="24" viewBox="0 0 16 17" fill="none" xmlns="http://www.w3.org/2000/svg">
<path d="M11.2362 9.91304C10.2994 9.91304 9.84893 10.4348 8.31154 10.4348C6.77416 10.4348 6.32698 9.91304 5.38693 9.91304C2.96498 9.91304 1 11.8761 1 14.2957V15.1304C1 15.9946 1.70178 16.6957 2.56676 16.6957H14.0563C14.9213 16.6957 15.6231 15.9946 15.6231 15.1304V14.2957C15.6231 11.8761 13.6581 9.91304 11.2362 9.91304ZM14.0563 15.1304H2.56676V14.2957C2.56676 12.7435 3.83322 11.4783 5.38693 11.4783C5.86348 11.4783 6.63707 12 8.31154 12C9.99907 12 10.7563 11.4783 11.2362 11.4783C12.7899 11.4783 14.0563 12.7435 14.0563 14.2957V15.1304ZM8.31154 9.3913C10.9065 9.3913 13.0118 7.28804 13.0118 4.69565C13.0118 2.10326 10.9065 0 8.31154 0C5.7166 0 3.61127 2.10326 3.61127 4.69565C3.61127 7.28804 5.7166 9.3913 8.31154 9.3913ZM8.31154 1.56522C10.0382 1.56522 11.4451 2.97065 11.4451 4.69565C11.4451 6.42065 10.0382 7.82609 8.31154 7.82609C6.58484 7.82609 5.17802 6.42065 5.17802 4.69565C5.17802 2.97065 6.58484 1.56522 8.31154 1.56522Z" fill="#00D573"/>
</svg>
