<svg width="254" height="177" viewBox="0 0 254 177" fill="none" xmlns="http://www.w3.org/2000/svg">
<path d="M119.959 107.582C114.239 98.1117 104.319 94.969 101.06 94.0905C100.171 91.6376 99.9015 89.0028 100.276 86.4206C101.015 81.3471 102.22 73.1007 102.338 72.498L77.694 82.0844L52.6294 90.5059C53.1052 90.8981 59.3122 96.4554 63.1282 99.8779C65.0711 101.62 66.5531 103.816 67.4423 106.269C65.5022 109.031 59.8966 117.798 61.5699 128.734C63.1504 139.061 70.3497 145.598 75.1435 149.963C78.6044 153.103 82.4742 155.761 86.6476 157.864C88.4863 159.183 90.5855 160.093 92.8046 160.535C95.0237 160.977 97.3116 160.94 99.5152 160.426C100.268 160.251 101.717 159.88 103.074 159.461C103.672 159.276 104.433 159.039 105.304 158.733L105.448 158.68L105.591 158.629C106.456 158.306 107.192 158.001 107.771 157.759C109.078 157.212 110.431 156.568 111.121 156.221C113.142 155.203 114.922 153.766 116.342 152.006C117.762 150.245 118.79 148.202 119.357 146.012C121.215 141.724 122.483 137.205 123.129 132.577C124.02 126.162 125.359 116.526 119.959 107.582Z" fill="#D6B49A"/>
<path d="M95.9057 161.038C92.5471 161.037 89.273 159.986 86.5416 158.031C82.3586 155.921 78.4797 153.255 75.01 150.106C70.2136 145.747 62.966 139.159 61.375 128.762C59.8337 118.688 64.3465 110.358 67.2212 106.239C66.3381 103.855 64.8885 101.722 62.9973 100.023C59.2833 96.6908 52.9809 91.0433 52.5051 90.6576C52.4783 90.6352 52.4578 90.6061 52.4457 90.5733C52.4335 90.5406 52.4301 90.5052 52.4358 90.4707C52.4422 90.4361 52.4577 90.4038 52.4807 90.3772C52.5036 90.3505 52.5332 90.3305 52.5665 90.319L77.6324 81.8962L102.271 72.3164C102.303 72.3038 102.339 72.3001 102.373 72.3058C102.408 72.3116 102.44 72.3264 102.467 72.3489C102.493 72.3713 102.513 72.4005 102.525 72.4334C102.537 72.4664 102.539 72.5018 102.532 72.536C102.416 73.1374 101.192 81.5105 100.473 86.4495C100.109 88.9654 100.363 91.532 101.211 93.9285C106.057 95.2501 114.857 98.7563 120.126 107.481C125.563 116.484 124.215 126.186 123.323 132.606C122.676 137.246 121.404 141.777 119.544 146.077C118.967 148.291 117.925 150.357 116.487 152.137C115.049 153.916 113.249 155.369 111.205 156.397C110.453 156.775 109.121 157.406 107.84 157.941C107.237 158.193 106.525 158.487 105.684 158.803L105.654 158.817L105.366 158.92L105.336 158.929C104.485 159.226 103.751 159.452 103.127 159.648C101.8 160.059 100.374 160.433 99.5556 160.618C98.359 160.897 97.1343 161.038 95.9057 161.038ZM53.0188 90.5818C54.3496 91.7453 59.8769 96.6986 63.2601 99.7328C65.2253 101.498 66.7254 103.72 67.6278 106.203C67.6386 106.232 67.6421 106.264 67.638 106.295C67.6339 106.326 67.6223 106.356 67.6042 106.382C64.7661 110.424 60.2337 118.698 61.7646 128.704C63.3333 138.964 70.5234 145.496 75.2767 149.818C78.7238 152.945 82.5777 155.593 86.7337 157.689L86.7599 157.704C88.5759 159.007 90.649 159.906 92.8406 160.342C95.0322 160.779 97.2917 160.742 99.468 160.235C100.281 160.046 101.697 159.681 103.015 159.273C103.641 159.081 104.381 158.848 105.237 158.549L105.263 158.541L105.496 158.457L105.521 158.446C106.368 158.129 107.09 157.833 107.692 157.579C108.963 157.048 110.285 156.422 111.031 156.047C113.027 155.042 114.786 153.623 116.19 151.884C117.593 150.146 118.609 148.127 119.17 145.964C119.173 145.954 119.177 145.944 119.181 145.935C121.031 141.664 122.295 137.162 122.938 132.552C123.821 126.187 125.16 116.568 119.792 107.684C114.559 99.0177 105.777 95.5639 101.009 94.2801C100.979 94.2713 100.952 94.2556 100.929 94.2343C100.907 94.2129 100.889 94.1865 100.879 94.1572C99.9812 91.673 99.7095 89.0061 100.088 86.392C100.741 81.8962 101.815 74.5519 102.093 72.8066L77.7671 82.2662L53.0188 90.5818Z" fill="black"/>
<path d="M78.8349 85.245C92.5624 80.2731 103.073 74.5376 102.312 72.4346C101.55 70.3315 89.804 72.6572 76.0765 77.6292C62.349 82.6012 51.8382 88.3367 52.5999 90.4397C53.3616 92.5428 65.1074 90.217 78.8349 85.245Z" fill="#020202"/>
<path d="M55.1222 91.4015C53.7077 91.4015 52.658 91.1597 52.4187 90.5008C51.8958 89.0628 55.6098 86.6822 58.814 84.9331C63.2587 82.5094 69.3651 79.8477 76.0126 77.4384C82.6602 75.0291 89.0567 73.1623 94.0205 72.1792C97.6025 71.4706 101.979 70.9255 102.498 72.3596C103.017 73.7937 99.3072 76.1795 96.103 77.9286C91.6582 80.3523 85.5532 83.014 78.9044 85.422C72.2555 87.83 65.8616 89.6981 60.8965 90.6825C58.9591 91.0655 56.789 91.4015 55.1222 91.4015ZM99.8053 71.8458C98.6117 71.8458 96.8116 72.0262 94.0976 72.5635C89.1509 73.544 82.7765 75.4056 76.146 77.807C69.5154 80.2085 63.4274 82.8623 58.9996 85.2769C52.756 88.6837 52.6645 90.0354 52.7848 90.3675C52.905 90.6995 53.841 91.6747 60.818 90.2969C65.7635 89.3177 72.1391 87.4548 78.7684 85.0533C85.3976 82.6518 91.487 79.9994 95.9135 77.5835C102.156 74.1767 102.247 72.8263 102.127 72.4929C102.056 72.2942 101.679 71.8458 99.8053 71.8458Z" fill="black"/>
<path d="M105.016 163.804L105.004 174.631C105.004 175.44 105.875 176.098 106.95 176.099H106.989C108.063 176.099 108.937 175.446 108.937 174.635L108.948 163.928C108.948 163.859 108.04 163.798 106.937 163.798H105.016" fill="#818181"/>
<path d="M106.988 176.295H106.946C105.769 176.295 104.805 175.548 104.805 174.631L104.816 163.608H106.933C107.469 163.608 107.979 163.621 108.371 163.645C108.91 163.679 109.147 163.704 109.147 163.93L109.136 174.636C109.129 174.873 109.066 175.104 108.952 175.312C108.839 175.519 108.678 175.697 108.482 175.83C108.047 176.142 107.523 176.305 106.988 176.295ZM105.209 164.007L105.197 174.638C105.197 175.338 105.981 175.908 106.946 175.91H106.988C107.438 175.918 107.878 175.78 108.244 175.518C108.39 175.42 108.51 175.289 108.596 175.137C108.681 174.984 108.73 174.813 108.737 174.638L108.749 164.075C108.149 164.017 107.547 163.993 106.945 164.002H105.209V164.007Z" fill="#191818"/>
<path d="M208.292 163.804L208.28 174.631C208.28 175.44 209.151 176.098 210.226 176.099H210.265C211.339 176.099 212.213 175.446 212.213 174.635L212.224 163.928C212.224 163.859 211.309 163.798 210.212 163.798H208.292" fill="#818181"/>
<path d="M210.263 176.295H210.221C209.045 176.295 208.08 175.548 208.08 174.631L208.092 163.608H210.208C210.75 163.608 211.254 163.621 211.64 163.645C212.178 163.679 212.416 163.704 212.416 163.93L212.405 174.636C212.398 174.873 212.335 175.104 212.221 175.312C212.108 175.519 211.946 175.697 211.751 175.83C211.318 176.14 210.796 176.303 210.263 176.295ZM208.484 164.007L208.472 174.638C208.472 175.338 209.257 175.908 210.221 175.91H210.263C210.713 175.918 211.154 175.78 211.52 175.518C211.665 175.42 211.786 175.289 211.871 175.137C211.957 174.984 212.005 174.813 212.012 174.638L212.024 164.075C211.425 164.017 210.822 163.993 210.22 164.002H208.484V164.007Z" fill="#191818"/>
<path d="M218.293 161.124H78.3804C78.0077 161.124 77.6503 161.272 77.3867 161.536C77.1232 161.799 76.9751 162.157 76.9751 162.53C76.9751 162.902 77.1232 163.26 77.3867 163.523C77.6503 163.787 78.0077 163.935 78.3804 163.935H216.92C217.107 163.935 217.293 163.897 217.465 163.825C217.638 163.752 217.794 163.645 217.925 163.511C218.056 163.377 218.158 163.219 218.227 163.044C218.295 162.87 218.328 162.684 218.324 162.497L218.293 161.124Z" fill="#DCDBDA"/>
<path d="M216.92 164.131H78.3802C77.9555 164.131 77.5482 163.962 77.2479 163.662C76.9475 163.362 76.7788 162.954 76.7788 162.53C76.7788 162.105 76.9475 161.698 77.2479 161.397C77.5482 161.097 77.9555 160.928 78.3802 160.928H218.489L218.524 162.497C218.528 162.71 218.49 162.922 218.412 163.121C218.333 163.319 218.216 163.5 218.066 163.652C217.917 163.804 217.738 163.925 217.541 164.007C217.345 164.09 217.133 164.132 216.92 164.131ZM78.3802 161.32C78.0595 161.32 77.752 161.448 77.5252 161.675C77.2984 161.901 77.171 162.209 77.171 162.53C77.171 162.85 77.2984 163.158 77.5252 163.385C77.752 163.611 78.0595 163.739 78.3802 163.739H216.92C217.081 163.739 217.24 163.706 217.389 163.644C217.537 163.581 217.671 163.49 217.784 163.375C217.896 163.259 217.985 163.123 218.044 162.973C218.103 162.823 218.132 162.663 218.128 162.502L218.1 161.326L78.3802 161.32Z" fill="black"/>
<path d="M71.385 88.0471C71.385 88.0471 66.3362 107.33 67.1781 115.407C67.6801 120.229 67.5233 128.219 67.3089 133.892C67.2426 135.679 66.4807 137.368 65.1858 138.6C63.891 139.833 62.1658 140.51 60.3784 140.488C58.591 140.466 56.8831 139.746 55.6193 138.482C54.3554 137.218 53.6357 135.51 53.6137 133.722C53.5784 130.846 53.2503 128.658 53.5484 127.029C55.3354 117.249 52.598 117.094 54.2125 108.17C54.4887 107.205 54.7746 106.233 55.0701 105.256C56.6153 100.158 58.3082 95.4189 60.1031 90.7963C62.03 90.6146 64.1818 90.042 66.4997 89.5244C68.2815 89.1269 69.9117 88.5334 71.385 88.0471Z" fill="#4EA7F1"/>
<path d="M60.4688 140.682C58.6174 140.676 56.8424 139.943 55.5249 138.642C54.2075 137.342 53.4526 135.576 53.4225 133.725C53.4108 132.708 53.3598 131.764 53.3153 130.922C53.2343 129.39 53.1637 128.066 53.3598 127C54.2749 122.018 53.999 119.533 53.7363 117.13C53.4748 114.76 53.2317 112.522 54.0239 108.141V108.123C54.3036 107.148 54.5926 106.162 54.8828 105.205C56.2881 100.566 57.8895 95.9665 59.921 90.7308L59.9655 90.6184L60.0858 90.6067C61.5839 90.4668 63.2324 90.0837 64.9776 89.6785C65.4626 89.566 65.9555 89.451 66.4575 89.3399C67.8221 89.0136 69.1684 88.6148 70.4905 88.145C70.772 88.0492 71.0487 87.9568 71.3206 87.8679L71.6618 87.7542L71.5716 88.1032C71.5206 88.2954 66.5398 107.442 67.3687 115.394C67.868 120.193 67.719 128.11 67.5059 133.905C67.4428 135.728 66.6731 137.454 65.3596 138.719C64.0462 139.984 62.2922 140.688 60.4688 140.682ZM54.4082 108.214C53.6239 112.529 53.8696 114.742 54.1258 117.082C54.3873 119.512 54.6671 122.026 53.7454 127.064C53.5585 128.09 53.6278 129.394 53.7075 130.901C53.752 131.742 53.803 132.695 53.8147 133.72C53.8369 135.455 54.5364 137.114 55.764 138.341C56.9917 139.568 58.6502 140.267 60.3859 140.288C62.1215 140.31 63.7969 139.652 65.0545 138.456C66.3122 137.259 67.0525 135.619 67.1177 133.884C67.3307 128.101 67.4798 120.205 66.9869 115.428C66.2143 108.005 70.4356 90.9988 71.1114 88.3463L70.6186 88.5045C69.2836 88.9786 67.9243 89.3809 66.5464 89.7098C66.047 89.8223 65.5546 89.9351 65.0691 90.0484C63.3579 90.4406 61.7382 90.8224 60.2466 90.974C58.2386 96.1522 56.6541 100.711 55.2632 105.307C54.973 106.269 54.6854 107.244 54.4082 108.214Z" fill="black"/>
<path d="M73.7421 129.21C72.576 129.21 71.7224 127.519 71.389 126.856C69.0895 122.303 72.5656 114.36 73.9147 111.54C75.2037 114.442 78.4013 122.32 76.1031 126.856C75.7553 127.53 74.9043 129.21 73.7421 129.21Z" fill="#4EA7F1"/>
<path d="M73.7424 129.405C72.4548 129.405 71.5828 127.679 71.2115 126.941C69.0388 122.64 71.8652 115.39 73.7333 111.452L73.9163 111.06L74.0902 111.452C75.8406 115.391 78.4513 122.639 76.2733 126.937C75.9008 127.679 75.0262 129.405 73.7424 129.405ZM73.9032 112.009C72.073 115.956 69.5317 122.749 71.5593 126.765C71.8704 127.379 72.6953 129.013 73.7411 129.013C74.7869 129.013 75.6105 127.379 75.923 126.765C77.9558 122.747 75.6184 115.957 73.9032 112.009Z" fill="black"/>
<path d="M230.095 108.898C215.616 96.3704 197.674 99.1549 195.087 99.5994C170.18 103.575 150.035 112.672 146.951 124.214C146.318 126.598 145.807 129.012 145.422 131.448C139.258 130.402 128.912 129.889 122.887 136.444L122.857 136.478C121.145 138.35 122.346 141.375 124.869 141.638C126.38 141.795 128.196 141.946 130.243 142.046C134.493 142.252 143.589 148.844 149.285 153.224C152.838 157.283 157.853 159.771 163.235 160.144H163.321C164.902 161.204 169.073 163.688 174.847 163.599C177.893 163.546 180.887 162.798 183.6 161.412L204.566 161.124C214.271 163.941 222.064 163.647 226.813 163.052C233.639 162.199 236.201 160.494 237.348 159.552C241.309 156.283 242.751 151.193 243.77 146.096C245.864 135.623 242.492 119.626 230.095 108.898Z" fill="#F8F3ED"/>
<path d="M174.551 163.804C169.271 163.804 165.244 161.666 163.265 160.348H163.222C157.795 159.972 152.737 157.465 149.15 153.375C139.738 146.144 133.371 142.394 130.234 142.249C128.417 142.16 126.605 142.022 124.848 141.839C124.233 141.777 123.649 141.544 123.16 141.167C122.67 140.79 122.296 140.284 122.079 139.706C121.857 139.144 121.799 138.531 121.911 137.937C122.023 137.344 122.301 136.794 122.712 136.351L122.742 136.319C125.439 133.385 129.251 131.565 134.076 130.907C138.244 130.338 142.423 130.759 145.26 131.228C145.641 128.851 146.142 126.495 146.762 124.169C148.247 118.61 153.775 113.33 162.749 108.9C171.23 104.716 182.401 101.431 195.056 99.4101C196.916 99.0911 201.919 98.4283 208.153 99.1944C216.678 100.24 224.102 103.46 230.223 108.755C235.98 113.764 240.246 120.262 242.553 127.536C244.59 133.891 245.091 140.498 243.963 146.138C243.009 150.903 241.643 156.273 237.472 159.706C235.337 161.463 231.858 162.623 226.837 163.251C219.586 164.159 212.083 163.513 204.54 161.325L183.648 161.611C180.919 162.995 177.911 163.743 174.851 163.799C174.751 163.804 174.65 163.804 174.551 163.804ZM163.374 159.953L163.43 159.987C165.391 161.294 169.48 163.495 174.845 163.41C177.861 163.354 180.824 162.613 183.511 161.243L183.551 161.223L204.599 160.935L204.628 160.943C212.129 163.119 219.588 163.767 226.795 162.864C231.741 162.246 235.154 161.115 237.229 159.407C241.302 156.055 242.645 150.762 243.585 146.063C245.657 135.703 242.277 119.703 229.973 109.054C215.985 96.9459 198.49 99.2205 195.128 99.7997C182.508 101.814 171.375 105.084 162.929 109.254C154.06 113.633 148.603 118.826 147.146 124.272C146.514 126.649 146.005 129.057 145.623 131.487L145.592 131.683L145.396 131.649C139.644 130.67 129.082 130.01 123.041 136.584L123.011 136.617C122.649 137.006 122.404 137.49 122.306 138.012C122.208 138.535 122.26 139.074 122.455 139.569C122.646 140.077 122.975 140.522 123.404 140.854C123.834 141.186 124.347 141.393 124.887 141.45C126.637 141.632 128.442 141.769 130.247 141.856C133.468 142.013 139.912 145.787 149.399 153.076L149.427 153.102C152.944 157.12 157.907 159.583 163.234 159.956L163.374 159.953Z" fill="black"/>
<path d="M145.281 131.253C144.054 127.651 142.188 120.823 142.028 114.369C141.91 109.575 142.462 104.788 143.669 100.147C140.237 93.0954 138.764 85.2507 139.404 77.4344C139.438 77.0549 139.568 76.6904 139.783 76.3755C139.997 76.0606 140.288 75.8058 140.629 75.6354C140.97 75.4651 141.349 75.3848 141.729 75.4022C142.11 75.4196 142.48 75.5342 142.803 75.7349L160.073 86.4691C166.499 84.7231 173.25 84.5357 179.764 85.9226L195.427 73.1112C195.672 72.9098 195.967 72.7771 196.281 72.7268C196.594 72.6764 196.916 72.7102 197.212 72.8247C197.508 72.9391 197.769 73.1301 197.967 73.3782C198.165 73.6263 198.294 73.9226 198.341 74.2368C199.615 83.1069 198.874 92.1502 196.175 100.695C197.375 104.372 197.695 108.279 197.108 112.102" fill="#F8F3ED"/>
<path d="M145.095 131.316C144.376 129.204 142.015 121.742 141.827 114.374C141.708 109.586 142.256 104.805 143.456 100.168C140.031 93.102 138.563 85.2473 139.204 77.4213C139.236 77.0082 139.374 76.6103 139.605 76.2666C139.836 75.9229 140.153 75.6451 140.523 75.4604C140.896 75.2708 141.312 75.1809 141.73 75.1995C142.147 75.218 142.553 75.3444 142.908 75.5663L160.105 86.256C166.507 84.5309 173.226 84.3436 179.715 85.7095L195.304 72.9543C195.576 72.7306 195.903 72.5833 196.251 72.5274C196.599 72.4715 196.956 72.509 197.284 72.6361C197.613 72.7633 197.902 72.9754 198.122 73.2509C198.342 73.5264 198.485 73.8554 198.536 74.2041C199.812 83.0825 199.076 92.1343 196.381 100.69C197.574 104.379 197.887 108.295 197.296 112.127L196.904 112.067C197.485 108.275 197.168 104.399 195.977 100.751L195.958 100.691L195.977 100.631C198.668 92.114 199.406 83.1002 198.136 74.259C198.094 73.9793 197.979 73.7157 197.802 73.495C197.626 73.2742 197.393 73.1043 197.13 73.0025C196.866 72.9007 196.58 72.8707 196.301 72.9155C196.022 72.9603 195.759 73.0784 195.541 73.2576L179.805 86.1331L179.713 86.1135C173.23 84.7328 166.51 84.9193 160.113 86.6573L160.031 86.6795L142.69 75.8996C142.392 75.7135 142.051 75.6075 141.701 75.5919C141.35 75.5763 141.001 75.6517 140.688 75.8108C140.379 75.9649 140.114 76.1965 139.921 76.4831C139.727 76.7696 139.611 77.1014 139.583 77.4462C138.944 85.2291 140.41 93.0407 143.828 100.062L143.86 100.128L143.841 100.198C142.639 104.821 142.089 109.59 142.207 114.365C142.389 121.678 144.734 129.093 145.449 131.191L145.095 131.316Z" fill="black"/>
<path d="M55.9001 154.457H55.8622C55.8622 154.457 54.751 154.443 53.713 153.447C52.896 152.662 53.6019 149.207 56.0661 145.2C58.1709 149.271 58.6912 152.669 57.9172 153.447C56.9237 154.452 55.9001 154.457 55.9001 154.457Z" fill="#4EA7F1"/>
<path d="M55.9014 154.653H55.8622C55.8125 154.653 54.6608 154.626 53.5797 153.589C52.5718 152.623 53.615 148.813 55.904 145.092L56.0858 144.796L56.2452 145.105C58.2062 148.905 59.0075 152.627 58.0624 153.58C57.0231 154.626 55.955 154.648 55.904 154.648L55.9014 154.653ZM56.0531 145.601C53.6477 149.621 53.211 152.693 53.8477 153.305C54.819 154.237 55.8531 154.261 55.8635 154.261H55.8988C55.9184 154.261 56.8649 154.232 57.7813 153.309C58.3879 152.692 58.1081 149.698 56.0531 145.601Z" fill="black"/>
<path d="M244.308 139.423C246.244 140.315 249.307 142.092 251.367 145.437C256.128 153.169 252.58 164.492 245.959 170.449C241.153 174.774 235.619 175.453 231.266 176.014C228.714 176.342 216.886 177.816 208.763 170.449C207.119 168.959 203.272 165.467 203.839 161.15C204.133 158.928 205.642 155.962 208.215 155.137C213.145 153.55 216.095 161.696 225.352 162.697C226.685 162.841 232.396 163.296 236.856 159.69C237.587 159.099 238.792 157.991 240.255 155.507C241.758 152.954 244.299 147.662 244.308 139.423Z" fill="#333333"/>
<path d="M226.147 176.546C219.038 176.546 212.935 174.498 208.629 170.594C206.962 169.083 203.059 165.543 203.643 161.124C203.969 158.672 205.622 155.764 208.153 154.946C210.637 154.147 212.571 155.666 215.023 157.587C217.526 159.548 220.644 161.986 225.371 162.498C227.412 162.719 232.603 162.872 236.732 159.533C237.485 158.924 238.652 157.834 240.085 155.404C242.711 150.947 244.104 145.421 244.11 139.423V139.117L244.389 139.248C247.526 140.697 249.937 142.745 251.533 145.336C253.776 148.98 254.34 153.711 253.12 158.657C251.99 163.242 249.427 167.593 246.088 170.598C241.276 174.928 235.797 175.631 231.395 176.197L231.29 176.21C229.584 176.432 227.866 176.544 226.147 176.546ZM209.476 155.126C209.068 155.127 208.663 155.193 208.275 155.32C205.898 156.085 204.342 158.85 204.034 161.175C203.476 165.39 207.272 168.833 208.893 170.304C214.122 175.042 222.055 177 231.248 175.82L231.354 175.805C235.702 175.247 241.113 174.551 245.833 170.303C252.239 164.538 255.931 153.211 251.206 145.54C249.699 143.092 247.446 141.138 244.509 139.732C244.455 145.681 243.047 151.163 240.43 155.602C238.966 158.086 237.763 159.21 236.985 159.839C232.743 163.27 227.427 163.107 225.337 162.888C220.501 162.365 217.332 159.881 214.79 157.897C212.849 156.38 211.246 155.126 209.476 155.126Z" fill="#191818"/>
<path d="M183.649 161.582C183.605 161.582 183.561 161.566 183.527 161.538C183.492 161.51 183.468 161.471 183.458 161.428C183.449 161.384 183.454 161.339 183.474 161.299C183.494 161.259 183.527 161.227 183.567 161.208C183.656 161.166 192.527 156.967 194.572 149.05C194.577 149.024 194.587 148.999 194.603 148.977C194.618 148.955 194.637 148.937 194.66 148.923C194.682 148.908 194.708 148.899 194.734 148.895C194.76 148.891 194.787 148.892 194.813 148.899C194.839 148.906 194.863 148.917 194.884 148.934C194.905 148.95 194.923 148.971 194.936 148.994C194.949 149.017 194.957 149.043 194.959 149.069C194.962 149.096 194.959 149.123 194.951 149.148C193.858 153.385 190.864 156.537 188.545 158.43C187.064 159.651 185.449 160.702 183.732 161.561C183.706 161.574 183.678 161.581 183.649 161.582Z" fill="#191818"/>
<path d="M179.771 85.9253L195.434 73.1139C195.679 72.9125 195.974 72.7798 196.287 72.7295C196.601 72.6791 196.922 72.7129 197.219 72.8274C197.515 72.9418 197.776 73.1328 197.974 73.3809C198.172 73.629 198.301 73.9253 198.348 74.2395C198.771 77.1913 198.887 80.1824 198.916 84.8285C198.945 89.4746 197.311 93.7337 196.2 100.728C192.349 94.2436 186.62 89.0817 179.771 85.9253Z" fill="#333333"/>
<path d="M196.308 101.292L196.031 100.828C192.2 94.3782 186.502 89.2433 179.689 86.103L179.406 85.9723L195.31 72.9582C195.583 72.7345 195.909 72.5872 196.257 72.5313C196.605 72.4754 196.962 72.5129 197.291 72.64C197.619 72.7672 197.908 72.9793 198.128 73.2548C198.348 73.5303 198.491 73.8593 198.542 74.208C198.984 77.2867 199.086 80.4333 199.113 84.8297C199.131 87.6757 198.52 90.4223 197.806 93.6003C197.346 95.6684 196.824 98.0124 196.387 100.759L196.308 101.292ZM180.137 85.8795C186.732 88.9874 192.275 93.9547 196.085 100.171C196.505 97.6385 196.991 95.4566 197.423 93.5153C198.154 90.2301 198.73 87.6325 198.714 84.8323C198.687 80.4529 198.584 77.3193 198.147 74.2629C198.105 73.9832 197.99 73.7196 197.814 73.4989C197.637 73.2781 197.405 73.1082 197.141 73.0064C196.877 72.9046 196.591 72.8746 196.312 72.9194C196.033 72.9642 195.771 73.0823 195.552 73.2615L180.137 85.8795Z" fill="#191818"/>
<path d="M163.779 160.536C163.731 160.536 163.685 160.519 163.648 160.488C163.282 160.169 162.427 159.29 162.409 158.033C162.393 156.925 163.026 156.155 163.234 155.902C164.293 154.611 165.858 154.494 167.671 154.357C168.693 154.279 169.853 154.192 171.049 153.875C173.155 153.319 175.148 152.104 176.973 150.266C177.011 150.231 177.06 150.213 177.111 150.213C177.161 150.214 177.21 150.235 177.246 150.271C177.282 150.307 177.302 150.355 177.303 150.406C177.304 150.457 177.285 150.506 177.251 150.543C175.377 152.431 173.329 153.681 171.148 154.255C169.918 154.58 168.74 154.669 167.701 154.747C165.906 154.878 164.489 154.991 163.537 156.15C163.352 156.376 162.788 157.065 162.801 158.027C162.817 159.126 163.586 159.907 163.907 160.192C163.946 160.227 163.97 160.275 163.973 160.327C163.977 160.379 163.96 160.43 163.925 160.469C163.907 160.49 163.885 160.507 163.859 160.519C163.834 160.53 163.807 160.536 163.779 160.536Z" fill="#191818"/>
<path d="M169.531 120.468C180.577 120.468 189.532 113.62 189.532 105.172C189.532 96.7251 180.577 89.8772 169.531 89.8772C158.484 89.8772 149.529 96.7251 149.529 105.172C149.529 113.62 158.484 120.468 169.531 120.468Z" fill="#333333"/>
<path d="M169.531 120.664C158.394 120.664 149.333 113.714 149.333 105.172C149.333 96.6304 158.394 89.6809 169.531 89.6809C180.668 89.6809 189.729 96.6304 189.729 105.172C189.729 113.714 180.668 120.664 169.531 120.664ZM169.531 90.0731C158.615 90.0731 149.726 96.8461 149.726 105.172C149.726 113.498 158.615 120.271 169.531 120.271C180.447 120.271 189.336 113.498 189.336 105.172C189.336 96.8461 180.447 90.0731 169.531 90.0731Z" fill="#191818"/>
<path d="M156.785 108.31C159.059 108.31 160.903 106.466 160.903 104.192C160.903 101.918 159.059 100.074 156.785 100.074C154.511 100.074 152.667 101.918 152.667 104.192C152.667 106.466 154.511 108.31 156.785 108.31Z" fill="#F8F59C"/>
<path d="M156.785 108.506C155.932 108.506 155.097 108.253 154.388 107.779C153.679 107.305 153.126 106.631 152.799 105.843C152.473 105.055 152.387 104.187 152.554 103.35C152.72 102.514 153.131 101.745 153.734 101.141C154.338 100.538 155.106 100.127 155.943 99.9608C156.78 99.7944 157.647 99.8798 158.436 100.206C159.224 100.533 159.898 101.086 160.372 101.795C160.846 102.505 161.099 103.339 161.099 104.192C161.099 105.336 160.644 106.433 159.835 107.242C159.026 108.052 157.929 108.506 156.785 108.506ZM156.785 100.27C156.009 100.27 155.251 100.5 154.606 100.931C153.961 101.362 153.458 101.975 153.161 102.691C152.865 103.408 152.787 104.196 152.938 104.957C153.09 105.718 153.463 106.417 154.012 106.965C154.56 107.514 155.259 107.887 156.02 108.038C156.78 108.19 157.569 108.112 158.286 107.815C159.002 107.518 159.615 107.016 160.046 106.371C160.477 105.726 160.707 104.968 160.707 104.192C160.707 103.152 160.293 102.154 159.558 101.419C158.822 100.683 157.825 100.27 156.785 100.27Z" fill="#191818"/>
<path d="M198.291 74.3206C198.291 74.3206 189.14 86.7398 188.225 89.6158C187.54 91.7663 190.659 90.7009 192.278 90.0263C192.348 89.9974 192.425 89.9903 192.499 90.0061C192.573 90.0218 192.641 90.0596 192.693 90.1145C192.745 90.1694 192.779 90.2388 192.791 90.3136C192.804 90.3884 192.793 90.4651 192.76 90.5335L191.675 92.8252C191.606 92.9722 191.581 93.1365 191.604 93.2976C191.627 93.4586 191.696 93.6094 191.804 93.7311C191.912 93.8528 192.054 93.9401 192.211 93.9822C192.368 94.0243 192.534 94.0193 192.688 93.9678L193.984 93.5364C194.052 93.5134 194.126 93.5107 194.196 93.5285C194.266 93.5462 194.329 93.5838 194.378 93.6366C194.427 93.6895 194.46 93.7553 194.473 93.8263C194.485 93.8974 194.477 93.9705 194.449 94.0371L193.98 96.283L196.202 100.728C198.865 92.1923 199.579 83.1686 198.294 74.3206H198.291Z" fill="#F3D2C9"/>
<path d="M196.241 101.251L193.77 96.309L194.266 93.9559C194.279 93.9239 194.283 93.8888 194.277 93.8548C194.271 93.8207 194.255 93.7891 194.231 93.7637C194.208 93.7383 194.178 93.7203 194.144 93.7117C194.11 93.7032 194.075 93.7044 194.042 93.7154L192.747 94.1481C192.556 94.2121 192.35 94.2186 192.156 94.1666C191.962 94.1146 191.787 94.0065 191.653 93.8558C191.52 93.7051 191.434 93.5184 191.406 93.3191C191.378 93.1197 191.409 92.9166 191.496 92.7349L192.581 90.4432C192.597 90.4104 192.602 90.3734 192.596 90.3374C192.59 90.3014 192.574 90.268 192.548 90.2419C192.523 90.2153 192.491 90.197 192.455 90.1895C192.42 90.1821 192.383 90.1857 192.349 90.2001C190.154 91.1152 188.757 91.3217 188.197 90.8093C187.91 90.5478 187.856 90.1216 188.038 89.5503C188.953 86.6743 197.759 74.7061 198.133 74.1976L198.416 73.8132L198.484 74.2852C199.777 83.162 199.063 92.2159 196.393 100.78L196.241 101.251ZM194.183 96.2567L196.156 100.202C198.644 91.9862 199.329 83.33 198.164 74.8251C196.611 76.9507 189.216 87.1462 188.412 89.6745C188.281 90.089 188.297 90.3752 188.462 90.5269C188.875 90.9047 190.271 90.6498 192.199 89.8445C192.306 89.8004 192.423 89.7897 192.536 89.8138C192.65 89.8379 192.753 89.8955 192.832 89.9793C192.912 90.063 192.964 90.1688 192.983 90.2829C193.001 90.397 192.984 90.5139 192.935 90.6184L191.85 92.9088C191.797 93.021 191.778 93.1464 191.795 93.2693C191.813 93.3922 191.866 93.5074 191.948 93.6004C192.03 93.6934 192.138 93.7602 192.258 93.7925C192.378 93.8248 192.505 93.8211 192.623 93.782L193.918 93.3506C194.021 93.3163 194.131 93.3117 194.235 93.3374C194.34 93.363 194.436 93.4179 194.511 93.4956C194.586 93.5734 194.637 93.6707 194.659 93.7765C194.681 93.8823 194.672 93.9921 194.635 94.0932L194.183 96.2567Z" fill="black"/>
<path d="M159.988 86.4784C154.254 82.9239 148.307 79.1445 142.573 75.59C141.388 74.8553 139.48 75.8018 139.463 77.1966C139.428 80.1786 138.941 83.4847 139.856 88.0471C140.348 90.51 140.568 91.7833 141.066 93.4724C141.735 95.743 142.598 97.9518 143.647 100.074C144.321 98.7454 145.108 97.477 146 96.283C146.752 95.2751 149.472 91.7833 154.366 88.9622C156.147 87.9376 158.031 87.105 159.988 86.4784Z" fill="#333333"/>
<path d="M143.644 100.512L143.471 100.16C142.419 98.0279 141.551 95.8091 140.878 93.5284C140.458 92.1047 140.224 90.9491 139.884 89.2013C139.816 88.8561 139.743 88.4862 139.663 88.0848C138.956 84.5552 139.083 81.7667 139.194 79.3116C139.228 78.5743 139.259 77.8736 139.267 77.1938C139.275 76.514 139.705 75.85 140.417 75.4591C141.176 75.042 142.041 75.029 142.676 75.4238C145.543 77.1991 148.511 79.0633 151.382 80.866C154.252 82.6688 157.223 84.5343 160.091 86.3122L160.452 86.5357L160.048 86.6664C158.104 87.2889 156.233 88.1158 154.464 89.1333C150.063 91.6707 147.37 94.7755 146.156 96.4018C145.272 97.5871 144.491 98.8458 143.822 100.164L143.644 100.512ZM141.629 75.5323C141.271 75.5353 140.92 75.6283 140.607 75.8029C140.02 76.1245 139.666 76.6461 139.659 77.1991C139.651 77.8893 139.619 78.5887 139.586 79.3286C139.475 81.7628 139.349 84.5199 140.047 88.009C140.127 88.4104 140.2 88.779 140.27 89.1254C140.624 90.9243 140.838 92.0119 141.254 93.4173C141.884 95.552 142.686 97.6321 143.652 99.6373C144.291 98.4249 145.023 97.264 145.843 96.1652C147.074 94.5154 149.805 91.3648 154.268 88.7921C155.94 87.8311 157.702 87.0376 159.53 86.4233C156.772 84.712 153.928 82.9263 151.175 81.1941C148.299 79.3914 145.338 77.5337 142.472 75.7519C142.217 75.602 141.925 75.5259 141.629 75.5323Z" fill="#191818"/>
<path d="M139.463 76.9348C139.463 76.9348 149.318 85.5551 150.537 87.8127C150.609 87.9435 150.915 88.5474 150.689 88.8207C150.258 89.3436 148.413 88.0258 147.568 88.7004C147.483 88.7701 147.411 88.8552 147.357 88.9514C147.262 89.1298 147.22 89.3319 147.238 89.5333C147.255 89.7347 147.33 89.9267 147.455 90.0861C147.737 90.4613 148.108 91.0627 148.073 91.6339C148.073 91.8038 148.02 91.9695 147.923 92.1085C147.67 92.417 147.201 92.4196 147.072 92.4196C146.215 92.4196 145.753 91.5947 145.732 91.5568C145.62 91.4665 145.48 91.4187 145.336 91.4218C145.193 91.4249 145.055 91.4788 144.947 91.5738C144.879 91.6455 144.836 91.7372 144.824 91.8353C144.794 92.0615 144.831 92.2917 144.932 92.4967C145.215 93.0706 144.883 94.9218 144.69 95.7558C144.398 97.0002 143.912 98.1912 143.252 99.2855C142.075 96.7154 140.487 92.6183 139.722 87.6506C139.307 84.9377 139.154 82.191 139.266 79.4487C139.316 78.4251 139.398 77.5623 139.463 76.9348Z" fill="#F3D2C9"/>
<path d="M143.254 99.4855H143.244C143.208 99.4835 143.174 99.4718 143.144 99.4515C143.115 99.4312 143.091 99.4031 143.077 99.3704C141.362 95.657 140.168 91.7246 139.529 87.6846C139.111 84.9604 138.958 82.2024 139.07 79.4487C139.109 78.6055 139.174 77.7492 139.266 76.9178C139.269 76.8817 139.282 76.8473 139.304 76.8182C139.325 76.7891 139.354 76.7665 139.388 76.753C139.421 76.7395 139.458 76.7355 139.494 76.7415C139.529 76.7475 139.563 76.7633 139.59 76.7871C139.993 77.14 149.485 85.457 150.702 87.7199C150.833 87.9709 151.123 88.5958 150.833 88.9461C150.542 89.2965 150.013 89.1213 149.387 88.937C148.761 88.7526 148.064 88.5448 147.687 88.8533C147.621 88.9071 147.565 88.9733 147.524 89.0481C147.448 89.1925 147.416 89.3556 147.431 89.518C147.445 89.6804 147.507 89.8349 147.608 89.9632C147.925 90.3854 148.297 91.0208 148.261 91.6391C148.259 91.8507 148.191 92.0564 148.066 92.2274C147.86 92.4797 147.523 92.6091 147.065 92.6104C146.185 92.6104 145.683 91.8601 145.576 91.681C145.502 91.6325 145.414 91.6091 145.325 91.6143C145.236 91.6194 145.152 91.6529 145.083 91.7097C145.046 91.7536 145.022 91.8078 145.017 91.8653C144.993 92.0515 145.024 92.2405 145.107 92.4091C145.477 93.1569 144.942 95.5309 144.879 95.7989C144.583 97.0631 144.09 98.2731 143.419 99.3848C143.403 99.4143 143.379 99.439 143.35 99.4566C143.321 99.4743 143.288 99.4842 143.254 99.4855ZM139.619 77.3322C139.548 78.0394 139.497 78.7545 139.465 79.4618C139.352 82.1909 139.504 84.9245 139.918 87.6245C140.53 91.5053 141.659 95.2866 143.277 98.8671C143.831 97.8818 144.244 96.8228 144.501 95.7218C144.733 94.7243 144.993 93.0667 144.763 92.5935C144.641 92.3513 144.595 92.0778 144.632 91.8091C144.65 91.6677 144.713 91.5359 144.813 91.4339C144.956 91.3063 145.14 91.2339 145.331 91.2298C145.523 91.2258 145.71 91.2902 145.858 91.4117C145.877 91.4261 145.891 91.4444 145.902 91.4653C145.902 91.4731 146.321 92.2248 147.066 92.2248C147.401 92.2248 147.636 92.1437 147.766 91.9856C147.836 91.8786 147.873 91.7529 147.872 91.6248C147.898 91.1241 147.571 90.5789 147.293 90.205C147.145 90.0153 147.056 89.7866 147.036 89.547C147.016 89.3074 147.067 89.0673 147.181 88.8559C147.249 88.738 147.337 88.6338 147.443 88.5487C147.983 88.1173 148.789 88.3539 149.501 88.5631C149.911 88.6834 150.416 88.8324 150.536 88.6938C150.623 88.5879 150.549 88.2493 150.362 87.9094C149.291 85.9185 141.244 78.7663 139.619 77.3322Z" fill="black"/>
<path d="M156.785 107.134C158.409 107.134 159.726 105.817 159.726 104.192C159.726 102.568 158.409 101.251 156.785 101.251C155.16 101.251 153.843 102.568 153.843 104.192C153.843 105.817 155.16 107.134 156.785 107.134Z" fill="black"/>
<path d="M156.785 107.329C156.164 107.329 155.558 107.145 155.042 106.801C154.526 106.456 154.124 105.966 153.886 105.393C153.649 104.819 153.587 104.188 153.708 103.58C153.829 102.971 154.128 102.412 154.566 101.973C155.005 101.535 155.564 101.236 156.173 101.115C156.781 100.994 157.412 101.056 157.986 101.293C158.559 101.531 159.049 101.933 159.394 102.449C159.738 102.965 159.922 103.571 159.922 104.192C159.922 105.024 159.592 105.822 159.003 106.41C158.415 106.999 157.617 107.329 156.785 107.329ZM156.785 101.447C156.242 101.447 155.711 101.608 155.26 101.909C154.808 102.211 154.456 102.64 154.249 103.141C154.041 103.643 153.986 104.195 154.092 104.728C154.198 105.26 154.46 105.749 154.844 106.133C155.228 106.517 155.717 106.779 156.249 106.884C156.782 106.99 157.334 106.936 157.836 106.728C158.337 106.52 158.766 106.169 159.068 105.717C159.369 105.266 159.53 104.735 159.53 104.192C159.53 103.464 159.241 102.766 158.726 102.251C158.211 101.736 157.513 101.447 156.785 101.447Z" fill="#191818"/>
<path d="M183.192 108.31C185.466 108.31 187.31 106.466 187.31 104.192C187.31 101.918 185.466 100.074 183.192 100.074C180.918 100.074 179.074 101.918 179.074 104.192C179.074 106.466 180.918 108.31 183.192 108.31Z" fill="#F8F59C"/>
<path d="M183.192 108.506C182.339 108.506 181.505 108.253 180.795 107.779C180.086 107.305 179.533 106.631 179.206 105.843C178.88 105.055 178.794 104.187 178.961 103.35C179.127 102.514 179.538 101.745 180.141 101.141C180.745 100.538 181.514 100.127 182.35 99.9608C183.187 99.7944 184.055 99.8798 184.843 100.206C185.631 100.533 186.305 101.086 186.779 101.795C187.253 102.505 187.506 103.339 187.506 104.192C187.506 105.336 187.052 106.433 186.242 107.242C185.433 108.052 184.336 108.506 183.192 108.506ZM183.192 100.27C182.416 100.27 181.658 100.5 181.013 100.931C180.368 101.362 179.865 101.975 179.569 102.691C179.272 103.408 179.194 104.196 179.345 104.957C179.497 105.718 179.87 106.417 180.419 106.965C180.967 107.514 181.666 107.887 182.427 108.038C183.188 108.19 183.976 108.112 184.693 107.815C185.409 107.518 186.022 107.016 186.453 106.371C186.884 105.726 187.114 104.968 187.114 104.192C187.114 103.152 186.701 102.154 185.965 101.419C185.23 100.683 184.232 100.27 183.192 100.27Z" fill="#191818"/>
<path d="M183.192 107.134C184.816 107.134 186.133 105.817 186.133 104.192C186.133 102.568 184.816 101.251 183.192 101.251C181.567 101.251 180.25 102.568 180.25 104.192C180.25 105.817 181.567 107.134 183.192 107.134Z" fill="black"/>
<path d="M183.192 107.329C182.572 107.329 181.965 107.145 181.449 106.801C180.933 106.456 180.531 105.966 180.294 105.393C180.056 104.819 179.994 104.188 180.115 103.58C180.236 102.971 180.535 102.412 180.974 101.973C181.412 101.535 181.971 101.236 182.58 101.115C183.189 100.994 183.82 101.056 184.393 101.293C184.966 101.531 185.456 101.933 185.801 102.449C186.146 102.965 186.33 103.571 186.33 104.192C186.33 105.024 185.999 105.822 185.411 106.41C184.822 106.999 184.024 107.329 183.192 107.329ZM183.192 101.447C182.649 101.447 182.118 101.608 181.667 101.909C181.216 102.211 180.864 102.64 180.656 103.141C180.448 103.643 180.394 104.195 180.5 104.728C180.606 105.26 180.867 105.749 181.251 106.133C181.635 106.517 182.124 106.779 182.657 106.884C183.189 106.99 183.741 106.936 184.243 106.728C184.744 106.52 185.173 106.169 185.475 105.717C185.776 105.266 185.937 104.735 185.937 104.192C185.937 103.464 185.648 102.766 185.133 102.251C184.619 101.736 183.92 101.447 183.192 101.447Z" fill="#191818"/>
<path d="M168.585 104.993L169.923 105.172L171.151 104.997C171.204 104.99 171.258 104.997 171.307 105.019C171.355 105.042 171.397 105.077 171.426 105.122C171.455 105.167 171.47 105.22 171.471 105.273C171.471 105.327 171.455 105.38 171.427 105.425L170.238 107.291C170.203 107.344 170.155 107.388 170.1 107.418C170.044 107.449 169.982 107.465 169.918 107.466C169.855 107.467 169.792 107.453 169.735 107.424C169.678 107.396 169.629 107.354 169.592 107.302L168.315 105.429C168.285 105.384 168.269 105.331 168.268 105.277C168.267 105.223 168.281 105.17 168.31 105.124C168.338 105.078 168.379 105.041 168.428 105.018C168.477 104.995 168.531 104.986 168.585 104.993Z" fill="#F3D2C9"/>
<path d="M169.911 107.667C169.815 107.666 169.722 107.642 169.638 107.596C169.554 107.551 169.482 107.485 169.43 107.405L168.153 105.533C168.101 105.457 168.072 105.368 168.07 105.276C168.068 105.184 168.092 105.093 168.141 105.015C168.189 104.937 168.259 104.874 168.342 104.835C168.425 104.796 168.518 104.781 168.609 104.793L169.916 104.968L171.118 104.796C171.208 104.783 171.299 104.797 171.382 104.835C171.465 104.873 171.535 104.933 171.584 105.01C171.633 105.086 171.66 105.175 171.66 105.266C171.661 105.357 171.635 105.446 171.587 105.523L170.399 107.39C170.347 107.471 170.276 107.539 170.192 107.586C170.107 107.633 170.013 107.659 169.916 107.66L169.911 107.667ZM168.545 105.183C168.531 105.183 168.517 105.186 168.505 105.194C168.492 105.201 168.482 105.211 168.476 105.223C168.466 105.237 168.461 105.253 168.461 105.269C168.461 105.286 168.466 105.301 168.476 105.315L169.753 107.187C169.771 107.213 169.795 107.234 169.823 107.248C169.851 107.263 169.882 107.27 169.914 107.271C169.945 107.27 169.977 107.262 170.004 107.247C170.032 107.231 170.055 107.209 170.072 107.182L171.259 105.315C171.268 105.302 171.273 105.286 171.273 105.27C171.273 105.254 171.268 105.238 171.259 105.225C171.25 105.211 171.238 105.2 171.223 105.193C171.209 105.186 171.192 105.184 171.176 105.187L169.923 105.366L168.557 105.184L168.545 105.183Z" fill="black"/>
<path d="M167.97 109.704C167.839 109.704 167.696 109.696 167.55 109.681C167.498 109.676 167.45 109.651 167.417 109.61C167.384 109.57 167.368 109.518 167.374 109.466C167.379 109.414 167.404 109.366 167.445 109.333C167.485 109.3 167.537 109.284 167.589 109.289C168.355 109.365 168.917 109.221 169.257 108.86C169.755 108.338 169.631 107.507 169.63 107.498C169.622 107.446 169.635 107.393 169.666 107.351C169.697 107.308 169.744 107.28 169.796 107.272C169.848 107.264 169.901 107.277 169.943 107.308C169.986 107.339 170.014 107.386 170.022 107.438C170.022 107.479 170.176 108.464 169.548 109.13C169.184 109.513 168.656 109.704 167.97 109.704Z" fill="black"/>
<path d="M171.792 109.834C171.106 109.834 170.579 109.643 170.224 109.263C169.595 108.598 169.743 107.612 169.749 107.571C169.757 107.519 169.785 107.473 169.828 107.442C169.87 107.41 169.923 107.397 169.975 107.405C170.027 107.413 170.074 107.442 170.105 107.484C170.136 107.526 170.149 107.58 170.141 107.632C170.141 107.646 170.021 108.475 170.515 108.996C170.856 109.356 171.416 109.498 172.182 109.423C172.234 109.417 172.286 109.433 172.326 109.466C172.367 109.499 172.392 109.547 172.398 109.599C172.403 109.651 172.387 109.703 172.354 109.743C172.321 109.784 172.273 109.809 172.221 109.815C172.067 109.826 171.927 109.834 171.792 109.834Z" fill="black"/>
<path d="M197.245 105.565L206.461 102.754L197.245 105.565Z" fill="#F8F3ED"/>
<path d="M197.245 105.761C197.199 105.76 197.154 105.743 197.118 105.713C197.083 105.682 197.06 105.64 197.053 105.594C197.046 105.548 197.056 105.501 197.08 105.461C197.105 105.421 197.143 105.392 197.188 105.378L206.404 102.567C206.452 102.556 206.503 102.563 206.546 102.588C206.589 102.613 206.621 102.653 206.636 102.7C206.65 102.748 206.646 102.799 206.625 102.844C206.603 102.888 206.565 102.923 206.519 102.941L197.303 105.752C197.284 105.758 197.265 105.761 197.245 105.761Z" fill="black"/>
<path d="M197.572 107.591L206.265 108.964L197.572 107.591Z" fill="#F8F3ED"/>
<path d="M206.265 109.16H206.235L197.542 107.787C197.49 107.779 197.443 107.751 197.412 107.708C197.381 107.666 197.368 107.613 197.376 107.561C197.384 107.509 197.412 107.462 197.455 107.431C197.497 107.4 197.55 107.387 197.602 107.395L206.295 108.768C206.347 108.772 206.396 108.796 206.43 108.836C206.464 108.875 206.48 108.927 206.477 108.979C206.473 109.031 206.448 109.079 206.408 109.113C206.369 109.147 206.317 109.164 206.265 109.16Z" fill="black"/>
<path d="M142.274 107.591L134.365 109.356L142.274 107.591Z" fill="#F8F3ED"/>
<path d="M134.365 109.552C134.313 109.557 134.261 109.542 134.22 109.51C134.179 109.477 134.153 109.429 134.147 109.377C134.141 109.325 134.157 109.273 134.189 109.232C134.222 109.191 134.27 109.165 134.322 109.16L142.231 107.395C142.28 107.387 142.33 107.398 142.372 107.426C142.413 107.454 142.442 107.497 142.453 107.545C142.464 107.594 142.456 107.645 142.431 107.688C142.405 107.731 142.365 107.762 142.317 107.776L134.408 109.541C134.394 109.547 134.38 109.55 134.365 109.552Z" fill="black"/>
<path d="M142.601 105.434L133.907 104.061L142.601 105.434Z" fill="#F8F3ED"/>
<path d="M142.601 105.63H142.571L133.877 104.257C133.852 104.253 133.827 104.244 133.805 104.231C133.782 104.217 133.763 104.2 133.747 104.179C133.732 104.158 133.721 104.134 133.715 104.108C133.708 104.083 133.707 104.057 133.711 104.031C133.715 104.005 133.724 103.981 133.738 103.958C133.751 103.936 133.769 103.917 133.79 103.901C133.811 103.886 133.835 103.875 133.86 103.869C133.885 103.862 133.912 103.861 133.937 103.865L142.631 105.238C142.683 105.242 142.731 105.266 142.765 105.306C142.799 105.345 142.816 105.397 142.812 105.449C142.808 105.501 142.783 105.549 142.744 105.583C142.704 105.617 142.653 105.634 142.601 105.63Z" fill="black"/>
<path d="M44.723 27.4543C50.5496 30.1173 57.1815 36.0968 65.0788 43.7274C77.2091 55.4486 84.7927 74.3742 87.1719 81.508C86.4176 81.8584 83.22 75.9285 82.4657 76.2789C79.9465 69.3843 74.9789 58.1272 64.2944 47.1264C55.5617 38.1349 47.9533 31.4821 41.8091 28.5629L44.723 27.4543Z" fill="#8BB174"/>
<path d="M87.0971 81.7234C86.6317 81.7234 85.9755 80.8684 84.659 79.0094C83.94 77.995 82.855 76.4628 82.5386 76.4628L82.3451 76.5517L82.2837 76.3478C78.1788 65.1051 72.2489 55.5986 64.1555 47.2646C54.4816 37.2992 47.3491 31.4138 41.7277 28.7417L41.312 28.5456L44.7319 27.2383L44.8077 27.2723C50.3885 29.8241 56.755 35.4062 65.2171 43.5833C70.4906 48.6817 75.4492 55.6299 79.958 64.2449C84.0995 72.171 86.5127 78.9153 87.3573 81.4449L87.4135 81.6109L87.254 81.6842C87.2053 81.7089 87.1517 81.7223 87.0971 81.7234ZM82.5974 76.072C83.0602 76.1399 83.7151 76.9988 84.978 78.782C85.5663 79.6147 86.399 80.7913 86.8553 81.1835C85.548 77.3583 77.9853 56.4757 64.9425 43.8657C56.5471 35.7579 50.229 30.2124 44.7162 27.6684L42.3029 28.5835C47.9033 31.3615 54.9535 37.2273 64.4353 46.9888C72.5339 55.3306 78.4782 64.8424 82.5974 76.072Z" fill="black"/>
<path d="M77.1124 85.7803C67.3495 77.5444 53.6779 67.5449 49.1181 65.7932C37.3813 61.283 26.9622 59.3156 20.2153 59.2489C20.9404 58.5046 21.6669 57.7612 22.3946 57.0187C28.8003 56.9899 38.031 58.7691 48.4096 62.3785C52.572 63.8283 68.5052 74.2069 79.9152 84.6874L77.1124 85.7803Z" fill="#8BB174"/>
<path d="M77.0753 86.005L76.9851 85.9305C67.5034 77.926 53.6971 67.7592 49.0471 65.9761C38.6058 61.9666 27.8207 59.5194 20.2123 59.4449H19.7534L22.3105 56.8303H22.5432C29.2103 56.8303 38.6489 58.7834 48.4667 62.202C52.5624 63.6282 68.3374 73.8028 80.0389 84.5566L80.2703 84.7696L77.0753 86.005ZM20.6737 59.0592C28.2952 59.2213 38.9052 61.6594 49.1948 65.6101C53.8671 67.405 67.6524 77.543 77.1564 85.5553L79.5487 84.6193C68.0982 74.161 52.2839 63.9354 48.3438 62.5641C38.5679 59.1651 29.179 57.2147 22.5497 57.2147H22.483L20.6737 59.0592Z" fill="black"/>
<path d="M87.3079 81.7457C84.9862 78.6212 79.5217 69.0467 76.3372 65.9576C69.9775 59.8013 62.6171 54.7715 54.5709 51.0833L51.6543 52.1866C60.5772 56.4416 68.6686 62.2557 75.5476 69.3552C77.8615 71.7462 82.6644 80.5678 84.492 82.951L87.3079 81.7457Z" fill="#8BB174"/>
<path d="M84.4293 83.1943L84.3365 83.074C83.6031 82.1158 82.4305 80.1888 81.0683 77.9586C79.0577 74.6577 76.7804 70.9162 75.4025 69.4926C68.5444 62.4057 60.4715 56.6055 51.5667 52.3671L51.1562 52.1619L54.5774 50.8677L54.6532 50.9017C62.7225 54.5962 70.1022 59.6407 76.4745 65.8178C78.5831 67.8624 81.6958 72.7464 84.1966 76.6683C85.5261 78.7599 86.6805 80.5575 87.4648 81.6229L87.6139 81.8216L84.4293 83.1943ZM52.1524 52.2116C60.9359 56.453 68.9018 62.2115 75.6836 69.222C77.0915 70.677 79.3819 74.4381 81.4016 77.7573C82.6449 79.7979 83.8214 81.7301 84.5522 82.7158L86.9981 81.67C86.2072 80.5771 85.1143 78.8606 83.8606 76.8918C81.3703 72.983 78.272 68.1186 76.196 66.1054C69.8767 59.9784 62.5614 54.9707 54.563 51.2965L52.1524 52.2116Z" fill="black"/>
<path d="M173.061 153.411L177.505 163.347C175.287 163.599 173.045 163.555 170.838 163.216C170.838 163.216 167.022 162.773 164.486 160.863C162.724 159.54 162.64 158.608 162.618 158.329C162.516 157.056 163.355 156.155 163.681 155.846L163.779 155.757C164.955 154.729 167.047 154.589 167.178 154.58C168.516 154.498 170.366 154.151 173.061 153.411Z" fill="#333333"/>
<path d="M174.646 163.703C173.361 163.704 172.078 163.606 170.808 163.409C170.658 163.392 166.918 162.94 164.368 161.026C163.146 160.111 162.491 159.209 162.423 158.351C162.32 157.073 163.077 156.149 163.546 155.711L163.649 155.617C164.81 154.6 166.787 154.418 167.163 154.392C168.578 154.296 170.489 153.913 173.008 153.215L173.17 153.171L177.794 163.498L177.533 163.528C176.575 163.64 175.611 163.699 174.646 163.703ZM172.947 153.645C170.481 154.315 168.596 154.691 167.187 154.784C166.965 154.798 164.992 154.958 163.904 155.912C163.864 155.947 163.827 155.981 163.815 155.993C163.4 156.385 162.72 157.205 162.81 158.32C162.869 159.06 163.472 159.865 164.6 160.712C167.063 162.561 170.819 163.017 170.856 163.021C172.96 163.344 175.096 163.397 177.212 163.181L172.947 153.645Z" fill="#191818"/>
<path d="M133.029 142.656L136.979 130.926C134.296 130.887 131.631 131.375 129.136 132.364C127.339 133.114 125.665 134.127 124.168 135.371C124.037 135.482 122.207 137.055 122.142 138.57C122.142 138.652 122.142 138.729 122.142 138.734C122.172 140.012 123.1 140.826 123.457 141.088L123.564 141.166C124.658 141.94 125.993 141.854 127.96 141.902C129.07 141.929 129.625 141.944 130.313 142.033C131.236 142.155 132.145 142.364 133.029 142.656Z" fill="#333333"/>
<path d="M133.029 142.854C133.008 142.853 132.987 142.85 132.967 142.843C132.095 142.555 131.198 142.351 130.287 142.233C129.608 142.144 129.055 142.131 127.954 142.102C127.707 142.102 127.469 142.091 127.24 142.088C125.623 142.061 124.454 142.042 123.449 141.331L123.337 141.247C122.831 140.855 121.976 140.021 121.944 138.738C121.944 138.738 121.944 138.651 121.944 138.559C122.015 136.972 123.833 135.394 124.036 135.219C125.556 133.964 127.252 132.94 129.07 132.181C131.589 131.184 134.279 130.691 136.987 130.73C137.019 130.73 137.049 130.738 137.077 130.752C137.104 130.767 137.128 130.788 137.146 130.813C137.164 130.839 137.176 130.869 137.18 130.899C137.184 130.93 137.181 130.962 137.17 130.991L133.22 142.722C133.206 142.761 133.18 142.795 133.146 142.819C133.112 142.843 133.071 142.855 133.029 142.854ZM136.689 131.119C134.127 131.119 131.588 131.603 129.205 132.546C127.43 133.29 125.775 134.293 124.292 135.521C124.215 135.586 122.398 137.133 122.331 138.578C122.331 138.649 122.331 138.717 122.331 138.727C122.359 139.848 123.116 140.593 123.569 140.937L123.67 141.012C124.577 141.652 125.695 141.665 127.241 141.697C127.472 141.697 127.709 141.705 127.959 141.711C129.073 141.739 129.632 141.753 130.332 141.842C131.203 141.955 132.062 142.145 132.899 142.409L136.702 131.118L136.689 131.119Z" fill="#191818"/>
<path d="M17.8595 19.6744L14.1925 17.6743C13.2782 17.1755 12.5321 16.4172 12.0482 15.495C11.5643 14.5728 11.3642 13.5279 11.4734 12.4922L11.7806 9.5887C11.9035 8.42492 12.2777 7.30172 12.8775 6.29683C13.4772 5.29193 14.2881 4.42932 15.254 3.76867C15.8142 3.38576 16.4654 3.15731 17.142 3.10636C17.8186 3.0554 18.4967 3.18375 19.1079 3.47845C19.4606 3.64262 19.8219 3.7875 20.1903 3.91247C24.449 5.41762 28.3228 7.84464 31.535 11.0202L25.8522 21.3255L17.8595 19.6744Z" fill="#DA4E22"/>
<path d="M25.9529 21.5467L17.7915 19.8603L17.7654 19.8459L14.0985 17.847C13.1498 17.3304 12.3759 16.5437 11.8748 15.5867C11.3738 14.6297 11.1681 13.5455 11.2839 12.4715L11.5911 9.568C11.7162 8.37584 12.0992 7.22518 12.7134 6.19581C13.3277 5.16644 14.1585 4.283 15.1482 3.60677C15.7376 3.20481 16.4223 2.96505 17.1337 2.91158C17.8451 2.85811 18.558 2.99282 19.2008 3.30217C19.5473 3.46294 19.9021 3.6052 20.2636 3.72835C24.5493 5.24177 28.4471 7.68464 31.6775 10.8818L31.7834 10.9851L25.9529 21.5467ZM17.9275 19.4877L25.7503 21.1048L31.2919 11.0557C28.1215 7.94995 24.3102 5.57532 20.1251 4.09831C19.7501 3.97275 19.3822 3.82699 19.023 3.66168C18.4424 3.38196 17.7984 3.26018 17.1558 3.3086C16.5132 3.35703 15.8947 3.57395 15.3626 3.93751C14.4194 4.58149 13.6277 5.42301 13.0423 6.40364C12.457 7.38428 12.092 8.48055 11.9728 9.61637L11.6656 12.5199C11.5584 13.517 11.7496 14.5235 12.2151 15.4119C12.6805 16.3002 13.3993 17.0304 14.2802 17.5098L17.9275 19.4877Z" fill="black"/>
<path d="M21.3147 16.2117L21.2245 16.2182C20.0754 16.302 18.984 16.7543 18.1125 17.508C17.2411 18.2617 16.6361 19.2765 16.3876 20.4015L16.0372 21.986C15.6744 23.627 15.9139 25.3438 16.7119 26.8229C17.5099 28.3021 18.8132 29.4449 20.3839 30.0428L31.1677 34.1477L32.828 22.3559L25.3765 17.298C24.1837 16.4884 22.7524 16.1056 21.3147 16.2117Z" fill="#DA4E22"/>
<path d="M31.3288 34.4183L20.315 30.2272C18.7001 29.6125 17.3601 28.4377 16.5395 26.917C15.719 25.3964 15.4726 23.6314 15.8454 21.9442L16.1957 20.3611C16.4487 19.1923 17.0745 18.1374 17.979 17.3551C18.8834 16.5728 20.0175 16.1055 21.2105 16.0235L21.3007 16.017C22.7812 15.9117 24.2542 16.3062 25.484 17.1373L33.0375 22.2645L31.3288 34.4183ZM21.3294 16.4078L21.2392 16.4144C20.1304 16.4904 19.0763 16.9248 18.2357 17.6519C17.3951 18.3791 16.8136 19.3597 16.5787 20.446L16.2284 22.0292C15.884 23.6238 16.1204 25.2889 16.895 26.7247C17.6697 28.1604 18.9317 29.2722 20.4535 29.8598L31.0086 33.8771L32.6165 22.4527L25.2722 17.4628C24.1152 16.6803 22.7291 16.3088 21.336 16.4078H21.3294Z" fill="black"/>
<path d="M40.4362 8.99789L36.2358 3.43015C35.4343 2.36614 34.3463 1.55237 33.0991 1.08403C31.852 0.615691 30.4973 0.512149 29.1935 0.785514L27.8169 1.07443C27.151 1.2131 26.5297 1.51419 26.0083 1.95093C25.4869 2.38767 25.0815 2.94651 24.8282 3.57774C24.5748 4.20898 24.4815 4.89303 24.5563 5.56907C24.6312 6.2451 24.872 6.89216 25.2573 7.45267L28.7869 12.4596L39.8479 16.4612L40.4362 8.99789Z" fill="#DA4E22"/>
<path d="M40.0232 16.7345L28.6628 12.6243L25.0966 7.56646C24.6944 6.97942 24.4433 6.30219 24.3657 5.59485C24.288 4.88751 24.3862 4.17194 24.6514 3.51163C24.9166 2.85132 25.3408 2.26669 25.8861 1.80962C26.4315 1.35254 27.0813 1.03716 27.7778 0.891452L29.1557 0.60385C30.4933 0.326917 31.882 0.434339 33.1611 0.91369C34.4402 1.39304 35.5575 2.22473 36.3837 3.31255L40.6284 8.93388L40.6219 9.00839L40.0232 16.7345ZM28.9112 12.2975L39.6715 16.1906L40.2284 9.0633L36.0738 3.55439C35.2923 2.52451 34.2353 1.73685 33.0249 1.2825C31.8145 0.82815 30.5003 0.725661 29.2341 0.986884L27.8562 1.27579C27.2232 1.40826 26.6326 1.69489 26.1368 2.11027C25.641 2.52565 25.2554 3.05694 25.0141 3.65703C24.7728 4.25712 24.6834 4.90748 24.7536 5.55043C24.8239 6.19339 25.0517 6.80908 25.4168 7.34291L28.9112 12.2975Z" fill="black"/>
<path d="M31.3469 26.9718C36.0492 26.9718 39.8612 23.1598 39.8612 18.4575C39.8612 13.7551 36.0492 9.94312 31.3469 9.94312C26.6445 9.94312 22.8325 13.7551 22.8325 18.4575C22.8325 23.1598 26.6445 26.9718 31.3469 26.9718Z" fill="#F8F59C"/>
<path d="M31.3427 27.1639C29.9257 27.1634 28.5302 26.8171 27.2774 26.1552C26.0245 25.4932 24.9521 24.5356 24.1531 23.3653C23.3542 22.1951 22.8528 20.8475 22.6926 19.4397C22.5323 18.0318 22.718 16.606 23.2336 15.2862C23.7491 13.9663 24.5789 12.7921 25.6509 11.8656C26.723 10.939 28.005 10.288 29.3856 9.96909C30.7662 9.65015 32.2038 9.67289 33.5736 10.0353C34.9435 10.3978 36.2042 11.089 37.2464 12.049C38.5366 13.2366 39.4382 14.786 39.8332 16.4944C40.2282 18.2029 40.0983 19.9908 39.4603 21.6242C38.8223 23.2575 37.7061 24.6602 36.2577 25.6487C34.8093 26.6371 33.0962 27.1652 31.3427 27.1639ZM31.3492 10.143C29.4109 10.1438 27.5337 10.8217 26.0422 12.0597C24.5507 13.2977 23.5386 15.0178 23.1809 16.9229C22.8232 18.8279 23.1423 20.7981 24.083 22.4928C25.0238 24.1875 26.5272 25.5003 28.3332 26.2041C30.1392 26.908 32.1344 26.9588 33.9738 26.3476C35.8133 25.7365 37.3815 24.5019 38.4072 22.8572C39.4329 21.2125 39.8518 19.2611 39.5914 17.3403C39.331 15.4196 38.4076 13.6502 36.981 12.338C35.4469 10.9236 33.4358 10.1398 31.3492 10.143Z" fill="#191818"/>
<path d="M33.2921 8.99549L32.8764 12.1892C32.7104 13.4586 33.0137 14.6626 33.7262 15.5646L39.4338 22.7913L42.7804 31.5227C43.4717 30.342 44.0633 29.1059 44.5492 27.827C44.5492 27.827 45.812 24.2737 45.6669 20.2957C45.4055 12.9121 40.1959 7.03848 39.3253 6.08024C38.9541 5.63159 38.4509 5.31138 37.8872 5.16514C36.7996 4.90369 35.8962 5.4802 35.4269 5.77826C33.8608 6.77311 33.4085 8.47911 33.2921 8.99549Z" fill="#DA4E22"/>
<path d="M42.7401 31.9645L39.2601 22.8894L33.5721 15.6888C32.8243 14.7424 32.5093 13.4913 32.6819 12.1592L33.1015 8.94846C33.2897 8.10787 33.8297 6.55743 35.3239 5.60834C35.7919 5.31159 36.7619 4.69324 37.9385 4.97039C38.5431 5.12491 39.0829 5.46784 39.4797 5.94954C40.9112 7.52482 45.6135 13.2272 45.8685 20.2839C46.0123 24.2555 44.752 27.8518 44.7403 27.8884C44.248 29.1799 43.6503 30.4286 42.9532 31.622L42.7401 31.9645ZM33.4858 9.02951L33.0701 12.2141C32.9119 13.4338 33.2008 14.5802 33.8793 15.4431L39.6065 22.6933L39.617 22.7207L42.8172 31.0691C43.4116 30.003 43.9293 28.896 44.3664 27.7564C44.3781 27.725 45.6122 24.1953 45.471 20.3049C45.22 13.3762 40.5922 7.76929 39.1804 6.21492C38.8357 5.79588 38.367 5.49699 37.8417 5.36127C36.8351 5.12073 35.9867 5.65933 35.5317 5.94824C34.1617 6.81235 33.6623 8.24645 33.4858 9.02951Z" fill="black"/>
<path d="M31.0239 34.1644L24.5659 31.1798C23.2433 30.5666 22.2145 29.4585 21.701 28.0941C21.1876 26.7297 21.2305 25.2182 21.8206 23.8852L23.1632 20.8549C23.9131 19.1629 25.2761 17.8177 26.9778 17.09C28.6795 16.3624 30.5937 16.3063 32.3351 16.933L40.0716 19.7241C41.6158 20.2826 42.9203 21.3563 43.7651 22.7644C44.61 24.1724 44.9437 25.8287 44.7099 27.4541C44.36 29.1175 43.5694 30.6562 42.4208 31.9093C39.448 35.0925 35.2164 34.916 34.4634 34.8794C33.2859 34.8274 32.1245 34.5859 31.0239 34.1644Z" fill="#DA4E22"/>
<path d="M34.9459 35.0886C34.7655 35.0886 34.6021 35.0886 34.4596 35.0795C33.2595 35.0259 32.0759 34.7787 30.9547 34.3474H30.9417L24.4876 31.3576C23.1221 30.7185 22.0602 29.5712 21.5286 28.1604C20.9969 26.7495 21.0375 25.1868 21.6416 23.8054L22.9829 20.7751C23.7572 19.0411 25.1574 17.6632 26.9037 16.9169C28.65 16.1707 30.6136 16.1111 32.4019 16.75L40.1384 19.5411C41.7233 20.1185 43.0618 21.2226 43.9301 22.6687C44.7984 24.1148 45.1439 25.8152 44.9087 27.4854V27.4998C44.5516 29.1983 43.7437 30.7693 42.57 32.0479C40.0809 34.7056 36.6911 35.0886 34.9459 35.0886ZM31.0959 33.9905C32.1765 34.4044 33.3167 34.6419 34.4727 34.6938C35.9433 34.7566 39.6495 34.5997 42.2771 31.7864C43.4008 30.5611 44.1742 29.0561 44.5165 27.4292C44.7379 25.8494 44.4103 24.2414 43.5884 22.8742C42.7665 21.5069 41.5002 20.4632 40.0012 19.9176L32.2646 17.1252C30.5699 16.5196 28.709 16.5761 27.054 17.2833C25.3991 17.9906 24.0721 19.2965 23.3385 20.9399L21.9959 23.9715C21.4333 25.2585 21.3957 26.7145 21.8912 28.0288C22.3867 29.3432 23.3761 30.412 24.6484 31.0073L31.0959 33.9905Z" fill="black"/>
<path d="M8.4707 45.0306L7.93472 43.1808C7.59709 42.0151 7.67693 40.7681 8.16046 39.655C8.64398 38.5419 9.50087 37.6325 10.5833 37.0836C11.5524 36.5933 12.639 36.3824 13.7212 36.4748C14.8034 36.5672 15.8385 36.959 16.7105 37.6065C18.3564 38.1582 25.8027 40.8512 29.6278 48.6518C30.9541 51.378 31.6785 54.3576 31.7522 57.3884C31.7556 57.5818 31.7069 57.7727 31.6113 57.9409C31.5157 58.1091 31.3766 58.2485 31.2087 58.3446C31.0407 58.4406 30.85 58.4898 30.6566 58.487C30.4631 58.4841 30.274 58.4293 30.1089 58.3283L8.4707 45.0306Z" fill="#DA4E22"/>
<path d="M30.6722 58.688C30.4356 58.6872 30.2038 58.6206 30.0028 58.4958L8.30187 45.1615L7.74497 43.2385C7.39555 42.0291 7.47849 40.7358 7.97954 39.581C8.48058 38.4262 9.3684 37.4822 10.4903 36.9112C11.4857 36.4025 12.6033 36.1813 13.7175 36.2725C14.8317 36.3637 15.8985 36.7637 16.7979 37.4276C19.5432 38.3505 26.2235 41.2684 29.7989 48.563C31.1427 51.3127 31.8746 54.321 31.9442 57.3807C31.9524 57.6099 31.8976 57.837 31.7855 58.0371C31.6735 58.2372 31.5085 58.4027 31.3088 58.5154C31.1154 58.6277 30.8958 58.6872 30.6722 58.688ZM8.63785 44.904L30.2081 58.1611C30.3433 58.245 30.4986 58.2907 30.6576 58.2936C30.8167 58.2965 30.9736 58.2564 31.1117 58.1775C31.2499 58.0987 31.3642 57.984 31.4426 57.8456C31.521 57.7072 31.5606 57.5502 31.5572 57.3912C31.4891 54.3873 30.772 51.4337 29.4551 48.733C25.9254 41.5455 19.3236 38.6839 16.6437 37.7819L16.6136 37.7714L16.5888 37.7531C15.7469 37.1267 14.7466 36.7485 13.7009 36.6611C12.6553 36.5738 11.6061 36.7809 10.672 37.2589C9.63091 37.7876 8.80677 38.6628 8.34146 39.7337C7.87616 40.8046 7.79883 42.0043 8.12278 43.126L8.63785 44.904Z" fill="black"/>
<path d="M2.37852 63.1759L4.61659 64.8427C5.28413 65.3381 6.00395 65.759 6.76316 66.0977C7.67384 66.4992 8.60965 66.8411 9.56467 67.1213C11.6315 67.7279 16.7299 69.2208 22.3996 67.1344C26.7476 65.5342 29.4498 62.5588 30.8591 60.6162C30.9562 60.4865 31.0171 60.3333 31.0356 60.1723C31.0542 60.0113 31.0296 59.8483 30.9644 59.6999C30.8993 59.5515 30.7959 59.4231 30.6648 59.3277C30.5338 59.2324 30.3797 59.1736 30.2185 59.1573L5.60228 56.3662C4.73214 56.2676 3.85262 56.4372 3.08158 56.8524C2.31054 57.2676 1.68481 57.9085 1.28824 58.6893C0.911912 59.4456 0.814933 60.3107 1.01442 61.1316C1.21392 61.9525 1.69705 62.6766 2.37852 63.1759Z" fill="#DA4E22"/>
<path d="M16.271 68.4049C13.2642 68.4049 10.8418 67.6938 9.51232 67.3042C8.54896 67.0224 7.60523 66.6774 6.68727 66.2714C5.91436 65.9273 5.18177 65.499 4.50279 64.9942L2.26341 63.3327C1.54285 62.8074 1.03212 62.0434 0.822164 61.1768C0.612209 60.3101 0.716662 59.3971 1.11692 58.6003C1.53388 57.786 2.18848 57.1176 2.99395 56.6838C3.79941 56.2501 4.7177 56.0713 5.62706 56.1713L30.2393 58.9598C30.4342 58.9807 30.6202 59.0526 30.7785 59.1681C30.9369 59.2837 31.0621 59.4388 31.1416 59.618C31.221 59.7972 31.252 59.9941 31.2313 60.189C31.2106 60.384 31.139 60.57 31.0237 60.7285C29.4707 62.8699 26.7267 65.7498 22.4728 67.316C20.4863 68.0433 18.3864 68.412 16.271 68.4049ZM2.4948 63.0124L4.7368 64.6739C5.39175 65.1618 6.09899 65.5753 6.84545 65.9067C7.74751 66.3097 8.67506 66.6529 9.62213 66.9342C11.7478 67.5578 16.7259 69.0154 22.3355 66.9512C26.4953 65.4204 29.1817 62.5993 30.7021 60.5024C30.7777 60.3994 30.8246 60.2783 30.8382 60.1513C30.8517 60.0243 30.8314 59.896 30.7793 59.7795C30.7289 59.6632 30.6484 59.5624 30.5462 59.4875C30.4439 59.4126 30.3236 59.3663 30.1975 59.3533L5.58 56.5609C4.74956 56.47 3.91113 56.634 3.17607 57.0309C2.441 57.4279 1.84411 58.0391 1.46466 58.7833C1.10922 59.4963 1.01766 60.3122 1.20622 61.0863C1.39477 61.8603 1.85126 62.5427 2.4948 63.0124Z" fill="black"/>
<path d="M0.582103 49.9395C0.861582 51.1107 1.39083 52.2077 2.13361 53.1553C2.8764 54.103 3.81518 54.879 4.88569 55.4301L12.3921 59.2932C12.8954 59.4906 13.6314 59.7651 14.5322 60.054C16.4499 60.6772 18.4182 61.1321 20.4149 61.4136C23.9799 61.8372 27.9135 60.7129 30.1464 59.922C30.3617 59.8456 30.5599 59.7274 30.7296 59.5743C30.8992 59.4212 31.037 59.2361 31.135 59.0297C31.233 58.8232 31.2893 58.5995 31.3007 58.3712C31.3121 58.143 31.2783 57.9148 31.2014 57.6996C29.8653 54.0013 27.8965 51.8717 26.7867 50.8416C24.7368 48.9395 22.2491 47.6701 20.2607 46.6583C19.0019 46.0156 17.7107 45.4383 16.3924 44.9287L9.99979 43.1626C7.88523 42.5821 5.62721 42.8563 3.71305 43.926L3.07118 44.2842C2.09795 44.8282 1.32849 45.6745 0.879357 46.6949C0.43022 47.7154 0.325867 48.8545 0.582103 49.9395Z" fill="#DA4E22"/>
<path d="M22.0677 61.705C21.5099 61.7066 20.9524 61.6751 20.3983 61.6109C19.1825 61.4658 16.9 61.0213 14.4724 60.2435C13.7481 60.0108 13.0239 59.7533 12.3206 59.4787L12.3023 59.4709L4.79583 55.6066C3.69971 55.0428 2.73862 54.2485 1.97859 53.2782C1.21856 52.3078 0.677603 51.1845 0.392886 49.9852C0.126527 48.8571 0.234513 47.673 0.700532 46.6118C1.16655 45.5505 1.96529 44.6697 2.97608 44.1024L3.61796 43.7442C5.57812 42.6446 7.8941 42.3663 10.059 42.9703L16.4647 44.7417C17.7893 45.2543 19.087 45.8342 20.3525 46.4791C22.3579 47.5027 24.8522 48.7747 26.9217 50.6951C28.8826 52.5096 30.3807 54.8431 31.3873 57.6302C31.4733 57.8699 31.5111 58.1243 31.4984 58.3786C31.4858 58.6329 31.423 58.8822 31.3136 59.1122C31.2043 59.3422 31.0506 59.5483 30.8613 59.7187C30.672 59.889 30.451 60.0203 30.2108 60.1049C28.0564 60.8762 25.0313 61.705 22.0677 61.705ZM12.4722 59.1166C13.1651 59.3885 13.8789 59.6395 14.5926 59.8696C16.9928 60.6396 19.2453 61.0789 20.4454 61.2213C23.8286 61.6227 27.5557 60.637 30.0879 59.7389C30.2792 59.6714 30.4552 59.5668 30.6059 59.431C30.7565 59.2953 30.8789 59.1311 30.9659 58.9478C31.0529 58.7646 31.1028 58.566 31.1127 58.3635C31.1227 58.1609 31.0925 57.9584 31.0239 57.7675C30.0382 55.0379 28.5701 52.758 26.6602 50.9853C24.6313 49.1028 22.1631 47.8478 20.18 46.832C18.9293 46.1945 17.6469 45.6212 16.3379 45.1143L9.95438 43.3507C7.88912 42.7759 5.68032 43.0414 3.81013 44.0894L3.16956 44.4476C2.23301 44.973 1.49284 45.789 1.0608 46.7721C0.62876 47.7553 0.528309 48.8524 0.774613 49.8976C1.04719 51.0411 1.56379 52.1121 2.28901 53.0373C3.01423 53.9624 3.93092 54.7198 4.97623 55.2575L12.4722 59.1166Z" fill="black"/>
<path d="M48.3834 39.727C48.189 39.7235 47.9962 39.7629 47.8187 39.8424C47.6413 39.9219 47.4835 40.0396 47.3567 40.187C47.2299 40.3344 47.1371 40.508 47.085 40.6953C47.0329 40.8827 47.0227 41.0792 47.0552 41.2709C47.5782 44.3666 48.909 51.1958 50.7601 52.9215C53.1746 55.1726 57.0547 68.1344 67.8463 65.4008C75.256 63.5236 72.9787 55.7896 70.8217 51.1226C69.6271 48.5287 67.7301 46.3211 65.3455 44.7496C62.9767 43.2031 60.3999 42.0015 57.6926 41.1807C54.6721 40.2663 51.5389 39.7771 48.3834 39.727Z" fill="#DA4E22"/>
<path d="M64.9724 65.972C58.4085 65.972 54.8109 59.8147 52.5532 55.9451C51.8067 54.6666 51.1623 53.5619 50.6289 53.0691C48.7869 51.3526 47.4796 44.9639 46.8639 41.3035C46.8263 41.0833 46.8378 40.8575 46.8976 40.6422C46.9574 40.427 47.0639 40.2276 47.2097 40.0582C47.3554 39.8889 47.5367 39.7538 47.7406 39.6627C47.9446 39.5715 48.1661 39.5265 48.3895 39.5308C51.5647 39.5803 54.7174 40.0731 57.7562 40.995C60.4796 41.8212 63.0717 43.0304 65.4548 44.5861C67.871 46.1763 69.7928 48.4123 71.0016 51.0402C72.5272 54.3397 74.0202 58.9558 72.471 62.2044C71.6697 63.8855 70.131 65.0255 67.8955 65.5902C66.9409 65.8388 65.9589 65.9671 64.9724 65.972ZM48.3581 39.9217C48.1942 39.922 48.0324 39.9581 47.8839 40.0273C47.7354 40.0966 47.6037 40.1974 47.4981 40.3227C47.3924 40.448 47.3154 40.5947 47.2722 40.7528C47.2291 40.9109 47.2209 41.0765 47.2482 41.2381C47.7372 44.1416 49.0706 51.0794 50.893 52.7775C51.4682 53.3135 52.0957 54.3881 52.8905 55.7477C55.4096 60.0617 59.6269 67.2806 67.7936 65.2111C69.9074 64.6752 71.3598 63.6071 72.1076 62.0357C73.5914 58.9244 72.1259 54.4286 70.6369 51.2049C69.4586 48.6434 67.5853 46.4639 65.23 44.9142C62.8779 43.3788 60.3197 42.1851 57.632 41.3688C54.6278 40.4584 51.5113 39.9713 48.3725 39.9217H48.3581Z" fill="black"/>
<path d="M91.7645 79.8764C92.1396 79.6803 88.2178 41.6383 77.2366 26.9967C66.2554 12.3551 63.6408 10.002 63.6408 10.002C63.6408 10.002 63.3793 21.1139 68.0856 28.9576C72.7918 36.8013 78.2824 49.8742 79.8512 52.7502C81.4199 55.6263 87.172 81.9027 87.172 81.9027L91.7645 79.8764Z" fill="#8BB174"/>
<path d="M87.0316 82.1786L86.9807 81.9445C86.9218 81.6831 81.2155 55.6681 79.6782 52.8443C79.1709 51.9149 78.2584 49.9291 77.1028 47.4152C74.7144 42.2213 71.1063 34.3737 67.9165 29.0583C63.2351 21.2564 63.4443 10.1092 63.4443 9.99673L63.4547 9.57056L63.7711 9.85685C63.8783 9.95228 66.5256 12.3891 77.393 26.879C83.0836 34.4613 86.7702 48.1878 88.8592 58.3663C91.181 69.6731 92.1052 79.2829 91.9693 79.896C91.9634 79.9291 91.9502 79.9604 91.9308 79.9877C91.9113 80.0151 91.8861 80.0378 91.8568 80.0542H91.8438L87.0316 82.1786ZM63.8365 10.4765C63.8548 12.6714 64.1777 22.0604 68.2551 28.857C71.454 34.1894 75.0687 42.0501 77.4597 47.2505C78.6127 49.7578 79.5239 51.7384 80.0246 52.6561C81.5267 55.4119 86.7022 78.8476 87.3127 81.6269L91.5941 79.7457C91.6568 78.6842 90.6698 69.1331 88.4723 58.4369C86.3898 48.3055 82.7202 34.6443 77.0793 27.1222C68.2629 15.3592 64.8222 11.5119 63.8365 10.4765Z" fill="black"/>
</svg>
