<svg width="48" height="48" viewBox="0 0 48 48" fill="none" xmlns="http://www.w3.org/2000/svg">
<g clip-path="url(#clip0_2364_168)">
<path d="M20.1597 17.5352C19.7407 17.1162 19.0968 17.0216 18.5751 17.3016L12.9686 20.3113C12.5539 20.5341 12.0528 20.5234 11.648 20.2829L3.46805 15.4288C2.88434 15.0825 2.64949 14.3581 2.92263 13.737C3.62161 12.1464 4.89396 9.23085 5.39938 7.94172C5.50563 7.6703 5.66392 7.42167 5.88415 7.23112C11.3358 2.50558 22.1822 8.26346 30.4844 16.5656C38.7878 24.8682 44.5457 35.7147 39.8202 41.1663C39.6292 41.3865 39.3806 41.5448 39.1096 41.6511C37.8209 42.1565 34.905 43.4288 33.3143 44.1278C32.6932 44.401 31.9688 44.1661 31.6225 43.5824L26.7684 35.4024C26.5284 34.9976 26.5176 34.4965 26.74 34.0819L29.7497 28.4763C30.0297 27.9545 29.9351 27.3106 29.5161 26.8916L20.1597 17.5352Z" fill="white"/>
</g>
<defs>
<clipPath id="clip0_2364_168">
<rect width="48" height="48" fill="white"/>
</clipPath>
</defs>
</svg>
