<svg width="48" height="48" viewBox="0 0 48 48" fill="none" xmlns="http://www.w3.org/2000/svg">
<path d="M17.3843 21.8661C16.7919 21.8661 16.2696 22.2545 16.0987 22.8215L14.2625 28.914C14.1268 29.3648 13.7649 29.7115 13.3087 29.8277L4.09212 32.1794C3.43453 32.3473 2.75626 32.0012 2.5102 31.3689C1.87969 29.7498 0.717808 26.7886 0.163636 25.5196C0.0468396 25.2526 -0.0170314 24.9649 0.00395539 24.6744C0.517371 17.478 12.2584 13.8799 23.9994 13.8799C35.7417 13.8793 47.4827 17.4774 47.9961 24.6738C48.0168 24.9646 47.953 25.2523 47.8365 25.519C47.2826 26.7877 46.1204 29.7492 45.4899 31.3683C45.2438 32.0006 44.5656 32.3467 43.908 32.1788L34.6914 29.8271C34.2355 29.7106 33.8736 29.3639 33.7376 28.9134L31.902 22.8215C31.7311 22.2545 31.2089 21.8661 30.6164 21.8661L17.3843 21.8661Z" fill="white"/>
</svg>
