<svg width="24" height="24" viewBox="0 0 24 24" fill="none" xmlns="http://www.w3.org/2000/svg">
<path d="M3.699 21.9594C0.997075 19.24 0.996563 14.8381 3.699 12.1183L14.1802 1.56955C16.2597 -0.523183 19.6432 -0.523183 21.7226 1.56955C23.8067 3.66716 23.8072 7.06264 21.7226 9.16067L12.8971 18.043C11.434 19.5155 9.05337 19.5154 7.59036 18.0431C6.12404 16.5673 6.12353 14.1781 7.59036 12.7019L15.0648 5.17925C15.2831 4.95955 15.6371 4.95955 15.8554 5.17925L16.6457 5.97477C16.864 6.19442 16.864 6.55053 16.6457 6.77019L9.17108 14.293C8.57839 14.8894 8.57811 15.8552 9.17108 16.4519C9.76247 17.0471 10.7248 17.0472 11.3163 16.4519L20.1418 7.56959C21.3523 6.35136 21.3526 4.37928 20.1418 3.16072C18.9339 1.94507 16.9688 1.94516 15.7609 3.16072L5.27976 13.7094C3.45151 15.5494 3.45109 18.5279 5.27972 20.3683C7.10965 22.2101 10.0722 22.2099 11.9017 20.367C14.9428 17.3038 17.9844 14.2412 21.0266 11.1792C21.2448 10.9595 21.5987 10.9596 21.817 11.1794L22.6073 11.9749C22.8256 12.1946 22.8257 12.5505 22.6075 12.7701C19.5655 15.832 16.5241 18.8944 13.4832 21.9574C10.7799 24.6805 6.40274 24.6806 3.699 21.9594Z" fill="#536576"/>
</svg>
