<svg width="300" height="300" viewBox="0 0 300 300" fill="none" xmlns="http://www.w3.org/2000/svg">
<g clip-path="url(#clip0_2299_96)">
<path d="M150 299.962C232.843 299.962 300 232.813 300 149.981C300 67.1489 232.843 0 150 0C67.1573 0 0 67.1489 0 149.981C0 179.584 8.57777 207.184 23.3837 230.432C26.4002 235.168 27.6844 240.855 26.5445 246.353L22.04 268.081C18.9147 283.156 33.2807 295.962 47.8991 291.131L69.2425 284.078C74.5338 282.329 80.2846 282.931 85.3112 285.337C104.898 294.712 126.836 299.962 150 299.962Z" fill="#00D573"/>
<path d="M112.01 213.132C123.107 218.804 135.566 221.755 148.026 222C148.638 222 149.388 222 150 222C162.582 222 175.041 219.294 186.383 213.866C196.745 208.943 206.112 201.543 213.031 192.308C220.929 181.712 225 169.022 225 155.842C225 147.463 225 139.207 225 130.828C225 121.716 225 112.71 225 103.598C225 100.387 225 97.1912 225 94.1027C225 88.3079 219.199 84.4855 213.903 86.5802L185.786 98.292C183.934 99.0259 181.837 99.1483 179.985 98.4144C170.847 94.8366 160.73 92.9866 150 92.9866C139.27 92.9866 129.153 94.9589 120.031 98.4144C118.179 99.1483 116.082 99.0259 114.23 98.292L86.0969 86.9625C80.801 84.7455 75 88.6902 75 94.4696C75 98.7813 75 103.215 75 107.527C75 116.517 75 125.523 75 134.635C75 142.28 75 149.787 75 157.432C75 169.633 78.949 181.467 85.9745 191.314C92.6327 200.564 101.77 207.964 112.01 213.132ZM177.383 156.087C184.163 156.087 189.719 161.637 189.719 168.41C189.719 175.183 184.163 180.733 177.383 180.733C170.602 180.733 165.046 175.183 165.046 168.41C165.046 161.514 170.602 156.087 177.383 156.087ZM122.617 156.087C129.398 156.087 134.954 161.637 134.954 168.41C134.954 175.183 129.398 180.733 122.617 180.733C115.837 180.733 110.281 175.183 110.281 168.41C110.281 161.514 115.837 156.087 122.617 156.087Z" fill="white"/>
</g>
<defs>
<clipPath id="clip0_2299_96">
<rect width="300" height="300" fill="white"/>
</clipPath>
</defs>
</svg>
