<svg width="214" height="177" viewBox="0 0 214 177" fill="none" xmlns="http://www.w3.org/2000/svg">
<path fill-rule="evenodd" clip-rule="evenodd" d="M196.504 127.889L203.325 108.23C205.349 102.395 203.814 95.9165 199.386 91.6106L199.194 91.4237C194.744 87.095 192.571 80.9355 193.321 74.7725L195.879 53.7465C197.205 42.8481 189.445 32.9384 178.547 31.6123C177.992 31.5447 177.433 31.5007 176.874 31.4801L168.674 31.1795L151.939 15.2057C146.237 9.76239 137.732 8.48348 130.681 12.009L111.731 21.4837C108.663 23.018 105.249 23.732 101.823 23.5563L86.442 22.7675C78.236 22.3467 70.9581 27.9958 69.3302 36.0497L66.752 48.8051C66.5825 49.6436 66.4673 50.4922 66.4071 51.3456L63.9892 85.6439C63.8733 87.2878 63.4488 88.8952 62.7377 90.3819L56.0885 104.285C54.0199 108.61 53.5842 113.537 54.8619 118.159L57.5521 127.889H196.504Z" fill="#C4C4DE"/>
<path fill-rule="evenodd" clip-rule="evenodd" d="M57.5519 127.889L39.7184 147.247C34.437 152.98 34.803 161.909 40.5359 167.191C42.9797 169.442 46.1394 170.759 49.4586 170.909L181.75 176.916C189.537 177.27 196.136 171.244 196.489 163.457C196.499 163.244 196.504 163.03 196.504 162.817V127.889H57.5519Z" fill="#8B8BB5"/>
<mask id="mask0_2187_440" style="mask-type:alpha" maskUnits="userSpaceOnUse" x="84" y="0" width="130" height="82">
<path d="M89.8545 64.0787V0.0693359H84.4873V66.7623C84.4873 68.2444 85.6888 69.4459 87.1709 69.4459H130.948C134.073 69.4459 137.139 70.2977 139.817 71.9096L149.836 77.9416C153.349 80.0567 157.372 81.1743 161.473 81.1743H213.5V75.8071H161.473C158.348 75.8071 155.282 74.9553 152.604 73.3434L142.585 67.3114C139.072 65.1963 135.049 64.0787 130.948 64.0787H89.8545Z" fill="white"/>
</mask>
<g mask="url(#mask0_2187_440)">
<path d="M89.8545 64.0787V0.0693359H84.4873V66.7623C84.4873 68.2444 85.6888 69.4459 87.1709 69.4459H130.948C134.073 69.4459 137.139 70.2977 139.817 71.9096L149.836 77.9416C153.349 80.0567 157.372 81.1743 161.473 81.1743H213.5V75.8071H161.473C158.348 75.8071 155.282 74.9553 152.604 73.3434L142.585 67.3114C139.072 65.1963 135.049 64.0787 130.948 64.0787H89.8545Z" fill="#FF8484"/>
<path fill-rule="evenodd" clip-rule="evenodd" d="M189.944 74.217H218.569V83.9575H189.944V74.217ZM78.4243 62.4885H107.05V72.2291H78.4243V62.4885ZM82.897 39.3299V14.9785H94.9236L92.6376 39.3299H82.897ZM139.949 60.5007L163.008 71.4339V81.1745C162.346 83.7043 159.629 84.7645 154.858 84.3551C150.086 83.9456 142.764 82.024 132.892 78.5903L139.949 60.5007Z" fill="#DE6262"/>
</g>
<path fill-rule="evenodd" clip-rule="evenodd" d="M117.784 81.3731L51.7873 18.0596L46.0225 99.6615L116.492 87.138L117.784 81.3731Z" fill="#FFEECD"/>
<mask id="mask1_2187_440" style="mask-type:alpha" maskUnits="userSpaceOnUse" x="13" y="14" width="58" height="84">
<path d="M25.4887 96.6678C38.4604 101.903 56.3001 88.0399 65.3348 65.7048C74.3695 43.3697 71.1779 21.02 58.2062 15.7854C45.2345 10.5507 27.3948 24.4133 18.3601 46.7484C9.32544 69.0835 12.517 91.4332 25.4887 96.6678Z" fill="white"/>
</mask>
<g mask="url(#mask1_2187_440)">
<path d="M45.6317 99.6868C59.566 98.4619 69.1678 78.0111 67.0779 54.0088C64.9879 30.0064 51.9977 11.5416 38.0633 12.7665C24.1289 13.9914 14.5271 34.4421 16.6171 58.4445C18.707 82.4469 31.6973 100.912 45.6317 99.6868Z" fill="#F5CB76"/>
<path d="M69.0815 84.4544V88.0326H47.6125V84.4544H37.4744V80.4787H58.347H79.6172V84.4544H69.0815ZM68.6839 84.4544H58.347H48.0101V87.635H68.6839V84.4544ZM47.6125 84.0568H58.347V80.8763H37.872V84.0568H47.6125ZM58.7446 84.0568H69.0815H79.2196V80.8763H58.7446V84.0568ZM42.8416 27.8002H32.3059V30.9808H52.781V27.8002H42.8416ZM42.8416 27.4026H53.1785V31.3784H32.3059H10.837V27.4026H21.5714V23.8245H42.8416V27.4026ZM31.9084 30.9808V27.8002H21.5714H11.2345V30.9808H31.9084ZM42.4441 27.4026V24.222H21.969V27.4026H31.9084H42.4441ZM21.1739 36.7456H42.4441V40.7213H21.1739H0.30127V36.7456H21.1739ZM21.1739 40.3238V37.1432H0.698843V40.3238H21.1739ZM21.5714 40.3238H42.0465V37.1432H21.5714V40.3238Z" fill="white"/>
<path d="M79.4185 93.5984H58.5459V97.1766H79.4185V93.5984Z" stroke="white" stroke-width="0.397574"/>
<path d="M89.9542 84.4546H69.0815V88.0328H89.9542V84.4546Z" stroke="white" stroke-width="0.397574"/>
</g>
<path fill-rule="evenodd" clip-rule="evenodd" d="M114 89.5234C110.564 95.2579 110.564 98.5812 114 99.4935C117.437 100.406 120.355 97.6038 122.754 91.0874L114 89.5234Z" fill="#353535"/>
<path d="M118.083 159.695C141.412 159.695 160.325 157.381 160.325 154.527C160.325 151.672 141.412 149.358 118.083 149.358C94.7528 149.358 75.8403 151.672 75.8403 154.527C75.8403 157.381 94.7528 159.695 118.083 159.695Z" fill="#353535"/>
<mask id="mask2_2187_440" style="mask-type:alpha" maskUnits="userSpaceOnUse" x="47" y="84" width="137" height="84">
<path d="M169.15 152.099L173.714 155.324C173.745 155.346 173.776 155.37 173.806 155.396C174.331 155.845 174.392 156.636 173.942 157.161C173.402 157.79 172.527 158.015 171.751 157.724C166.587 155.788 163.606 154.391 162.81 153.533L150.584 142.898L135.079 139.021L134.085 159.298C132.825 159.408 131.864 159.474 131.202 159.496C125.239 159.695 120.402 159.768 117.232 159.817C114.053 159.866 110.316 159.817 104.9 159.651C104.396 159.635 103.368 159.524 101.817 159.317L103.9 137.578L91.0919 150.582C90.0715 151.619 88.9404 152.539 87.719 153.329L76.0874 160.846C74.7544 161.707 73.2721 162.312 71.7168 162.628L48.0102 167.448C47.663 164.622 48.8226 162.071 51.489 159.795C53.8159 157.808 61.567 156.461 67.0937 156.117C67.622 156.084 72.1751 152.34 80.753 144.883C81.0552 144.621 81.3391 144.337 81.6025 144.036L96.2455 127.271C99.7787 123.225 104.825 120.818 110.193 120.618L117.784 120.335L119.482 112.674H115.347C112.273 112.674 109.781 110.182 109.781 107.108C109.781 106.496 109.882 105.889 110.08 105.31L114.201 93.237C116.013 87.9252 121.004 84.355 126.617 84.355H129.397C134.117 84.355 137.942 88.1807 137.942 92.9C137.942 93.8884 137.771 94.8692 137.436 95.7989L128.121 121.627L153.317 130.849C156.731 132.099 159.736 134.26 162.007 137.099L168.873 145.681C174.836 145.416 178.083 145.747 178.613 146.675C179.053 147.445 180.613 149.152 183.292 151.796C183.824 152.321 183.83 153.178 183.305 153.71C183.123 153.894 182.892 154.023 182.639 154.079C181.1 154.425 179.488 154.049 178.261 153.059L177.122 152.141C173.041 152.364 170.457 152.364 169.37 152.141C169.296 152.126 169.223 152.112 169.15 152.099Z" fill="white"/>
</mask>
<g mask="url(#mask2_2187_440)">
<path d="M169.15 152.099L173.714 155.324C173.745 155.346 173.776 155.37 173.806 155.396C174.331 155.845 174.392 156.636 173.942 157.161C173.402 157.79 172.527 158.015 171.751 157.724C166.587 155.788 163.606 154.391 162.81 153.533L150.584 142.898L135.079 139.021L134.085 159.298C132.825 159.408 131.864 159.474 131.202 159.496C125.239 159.695 120.402 159.768 117.232 159.817C114.053 159.866 110.316 159.817 104.9 159.651C104.396 159.635 103.368 159.524 101.817 159.317L103.9 137.578L91.0919 150.582C90.0715 151.619 88.9404 152.539 87.719 153.329L76.0874 160.846C74.7544 161.707 73.2721 162.312 71.7168 162.628L48.0102 167.448C47.663 164.622 48.8226 162.071 51.489 159.795C53.8159 157.808 61.567 156.461 67.0937 156.117C67.622 156.084 72.1751 152.34 80.753 144.883C81.0552 144.621 81.3391 144.337 81.6025 144.036L96.2455 127.271C99.7787 123.225 104.825 120.818 110.193 120.618L117.784 120.335L119.482 112.674H115.347C112.273 112.674 109.781 110.182 109.781 107.108C109.781 106.496 109.882 105.889 110.08 105.31L114.201 93.237C116.013 87.9252 121.004 84.355 126.617 84.355H129.397C134.117 84.355 137.942 88.1807 137.942 92.9C137.942 93.8884 137.771 94.8692 137.436 95.7989L128.121 121.627L153.317 130.849C156.731 132.099 159.736 134.26 162.007 137.099L168.873 145.681C174.836 145.416 178.083 145.747 178.613 146.675C179.053 147.445 180.613 149.152 183.292 151.796C183.824 152.321 183.83 153.178 183.305 153.71C183.123 153.894 182.892 154.023 182.639 154.079C181.1 154.425 179.488 154.049 178.261 153.059L177.122 152.141C173.041 152.364 170.457 152.364 169.37 152.141C169.296 152.126 169.223 152.112 169.15 152.099Z" fill="#FFCDCD"/>
<path fill-rule="evenodd" clip-rule="evenodd" d="M113.212 120.037C115.001 123.085 117.983 124.808 122.158 125.206C126.332 125.603 129.38 124.609 131.302 122.224L152.373 126.479L143.527 142.699L139.054 142.102L135.141 159.591L98.5127 162.081L104.007 137.848L98.5127 148.139L83.1953 131.126C89.8128 124.621 95.6678 120.693 100.76 119.342C105.853 117.992 110.003 118.223 113.212 120.037Z" fill="#FFF9D6"/>
</g>
<path fill-rule="evenodd" clip-rule="evenodd" d="M135.017 94.5695L139.054 95.5355C139.089 102.394 137.288 105.374 133.651 104.475C131.832 104.026 130.802 102.919 130.562 101.156C129.033 102.404 127.442 102.745 125.789 102.181C122.436 101.036 122.28 97.6784 125.321 92.1077L135.079 94.4341C135.058 94.4794 135.038 94.5246 135.017 94.5695Z" fill="#353535"/>
<mask id="mask3_2187_440" style="mask-type:alpha" maskUnits="userSpaceOnUse" x="112" y="82" width="29" height="15">
<path d="M112.417 89.119L140.843 96.282C139.665 95.1715 139.102 94.3238 139.153 93.7389C139.74 87.109 136.062 85.0143 128.511 83.375C120.924 81.7278 118.609 81.5422 115.375 87.1667C115.101 87.6423 114.115 88.2931 112.417 89.119Z" fill="white"/>
</mask>
<g mask="url(#mask3_2187_440)">
<path d="M112.417 89.119L140.843 96.282C139.665 95.1715 139.102 94.3238 139.153 93.7389C139.74 87.109 136.062 85.0143 128.511 83.375C120.924 81.7278 118.609 81.5422 115.375 87.1667C115.101 87.6423 114.115 88.2931 112.417 89.119Z" fill="#3C3CA0"/>
<path fill-rule="evenodd" clip-rule="evenodd" d="M118.182 86.9391L139.75 92.7039L140.346 90.4178L118.977 83.9573L118.182 86.9391Z" fill="#26266F"/>
</g>
<path d="M117.088 88.1318C119.229 88.1318 120.965 86.3963 120.965 84.2555C120.965 82.1146 119.229 80.3792 117.088 80.3792C114.947 80.3792 113.212 82.1146 113.212 84.2555C113.212 86.3963 114.947 88.1318 117.088 88.1318Z" fill="#F5CB76"/>
<path d="M117.089 87.1381C118.79 87.1381 120.17 85.8476 120.17 84.2557C120.17 82.6638 118.79 81.3733 117.089 81.3733C115.387 81.3733 114.007 82.6638 114.007 84.2557C114.007 85.8476 115.387 87.1381 117.089 87.1381Z" fill="#FFEECD"/>
<path d="M115.862 94.2696C115.441 93.2743 114.831 92.8034 114.007 92.8034V92.207C115.036 92.207 115.817 92.7719 116.33 93.8558C118.325 92.667 120 93.1007 121.221 95.1348C121.305 95.276 121.26 95.4592 121.118 95.5439C120.977 95.6286 120.794 95.5829 120.709 95.4416C119.616 93.6204 118.236 93.3165 116.416 94.5053L112.292 101.482L114.71 101.953C114.871 101.985 114.977 102.141 114.945 102.303C114.914 102.464 114.757 102.57 114.596 102.538L111.764 101.986C111.562 101.947 111.459 101.719 111.564 101.542L115.862 94.2696ZM118.182 97.0773C117.743 97.0773 117.387 96.7213 117.387 96.2822C117.387 95.843 117.743 95.487 118.182 95.487C118.621 95.487 118.977 95.843 118.977 96.2822C118.977 96.7213 118.621 97.0773 118.182 97.0773ZM114.007 95.8846C113.568 95.8846 113.212 95.5286 113.212 95.0894C113.212 94.6503 113.568 94.2943 114.007 94.2943C114.447 94.2943 114.803 94.6503 114.803 95.0894C114.803 95.5286 114.447 95.8846 114.007 95.8846ZM112.743 105.956C111.838 105.709 111.27 104.96 111.475 104.284C111.679 103.607 112.578 103.258 113.482 103.505C114.387 103.752 114.955 104.501 114.751 105.178C114.547 105.855 113.648 106.203 112.743 105.956ZM110.448 108.603C110.505 108.449 110.676 108.37 110.83 108.427C110.985 108.483 111.064 108.655 111.007 108.809L110.311 110.698C110.255 110.852 110.083 110.932 109.929 110.875C109.774 110.818 109.695 110.646 109.752 110.492L110.448 108.603ZM111.64 109.001C111.697 108.846 111.869 108.767 112.023 108.824C112.178 108.881 112.257 109.052 112.2 109.207L111.504 111.095C111.447 111.25 111.276 111.329 111.121 111.272C110.967 111.215 110.888 111.044 110.945 110.889L111.64 109.001ZM112.833 109.398C112.89 109.244 113.061 109.165 113.216 109.222C113.37 109.279 113.45 109.45 113.393 109.605L112.697 111.493C112.64 111.648 112.469 111.727 112.314 111.67C112.159 111.613 112.08 111.441 112.137 111.287L112.833 109.398Z" fill="#353535"/>
<path fill-rule="evenodd" clip-rule="evenodd" d="M145.813 30.9806V34.9564H124.94H103.471V30.9806H107.447V27.0049H128.32H149.59V30.9806H145.813ZM128.32 39.1309H149.59V43.1066H128.32V39.1309ZM80.0144 111.489V115.266H58.5455V111.489H48.0098V107.514H68.8824H90.1526V111.489H80.0144ZM193.72 60.9974H204.455V64.9732H183.582H162.113V60.9974H151.578V57.0217H172.45H193.72V60.9974ZM178.016 106.023H192.13V109.998H170.86V106.221H156.746V102.246H178.016V106.023Z" fill="#8B8BB5"/>
<path d="M21.3726 24.0232H0.5V27.6014H21.3726V24.0232Z" stroke="white" stroke-width="0.397574"/>
<path d="M35.3805 60.0091V61.8824H33.655V63.2875H31.4366V61.8824H25.3481V60.0091L31.4366 54.6601H33.655V60.0091H35.3805ZM27.7392 60.0091H31.4366V56.8786L27.7392 60.0091ZM41.0129 63.4107C37.5866 63.4107 35.9598 61.8331 35.9598 58.9615C35.9598 56.1021 37.5866 54.5369 41.0129 54.5369C44.4269 54.5369 46.0661 56.1144 46.0661 58.9615C46.0661 61.8208 44.4269 63.4107 41.0129 63.4107ZM41.0129 61.5497C42.9603 61.5497 43.8476 60.576 43.8476 58.9615C43.8476 57.3592 42.9603 56.3979 41.0129 56.3979C39.0656 56.3979 38.1782 57.3469 38.1782 58.9615C38.1782 60.5883 39.0656 61.5497 41.0129 61.5497ZM56.8256 60.0091V61.8824H55.1002V63.2875H52.8817V61.8824H46.7933V60.0091L52.8817 54.6601H55.1002V60.0091H56.8256ZM49.1843 60.0091H52.8817V56.8786L49.1843 60.0091Z" fill="white"/>
<path fill-rule="evenodd" clip-rule="evenodd" d="M128.121 67.0605H129.91V71.0363H128.121V67.0605ZM173.047 78.5902H174.836V82.5659H173.047V78.5902Z" fill="#8B8BB5"/>
<path fill-rule="evenodd" clip-rule="evenodd" d="M147.602 156.117H115.399V159.794H112.417V147.47C112.417 146.646 113.084 145.979 113.908 145.979C114.731 145.979 115.399 146.646 115.399 147.47V153.135H147.602V147.47C147.602 146.646 148.27 145.979 149.093 145.979C149.917 145.979 150.584 146.646 150.584 147.47V157.807L147.602 158.204V156.117Z" fill="#FF8484"/>
<path d="M57.3782 162.686C56.0655 163.08 55.1665 164.288 55.1665 165.659C55.1665 165.824 55.3 165.957 55.4647 165.957C55.6294 165.957 55.7629 165.824 55.7629 165.659C55.7629 164.552 56.4891 163.576 57.5496 163.257L60.52 162.366C60.6092 162.34 60.6808 162.273 60.7135 162.185C60.8318 161.87 61.658 161.33 63.1409 160.663C64.5166 160.044 65.2869 159.941 66.2139 160.06L66.3404 160.076C66.3898 160.082 66.4278 160.087 66.4644 160.091C66.6281 160.109 66.7755 159.991 66.7937 159.828C66.8119 159.664 66.694 159.516 66.5303 159.498C66.4977 159.495 66.4628 159.49 66.4164 159.484C66.4022 159.483 66.3157 159.471 66.2895 159.468C65.2563 159.336 64.3752 159.454 62.8962 160.119C61.3982 160.793 60.5208 161.34 60.2255 161.832L57.3782 162.686Z" fill="#353535"/>
<path fill-rule="evenodd" clip-rule="evenodd" d="M129.115 103.967C133.146 105.014 135.491 104.232 136.149 101.622C136.648 99.6419 135.603 98.0086 133.311 98.5624C132.824 98.68 131.889 99.5766 130.507 101.252L129.115 103.967Z" fill="#FFCDCD"/>
<path d="M172.392 149.057L175.423 148.632C177.016 148.409 178.629 148.873 179.86 149.909L183.49 152.966C183.616 153.072 183.804 153.056 183.91 152.93C184.016 152.804 184 152.616 183.874 152.51L180.244 149.453C178.884 148.307 177.101 147.794 175.34 148.042L172.309 148.467C172.146 148.49 172.033 148.641 172.056 148.804C172.079 148.967 172.229 149.08 172.392 149.057Z" fill="#353535"/>
<path d="M124.742 31.1794H107.447V30.7818H128.519V27.0049H128.916V30.7818H145.813V31.1794H125.139V34.9564H124.742V31.1794ZM183.384 61.1962H162.213C162.103 61.1962 162.014 61.1072 162.014 60.9974C162.014 60.8876 162.103 60.7986 162.213 60.7986H172.649V57.0217H173.047V60.7986H193.721C193.831 60.7986 193.92 60.8876 193.92 60.9974C193.92 61.1072 193.831 61.1962 193.721 61.1962H183.781V64.9731H183.384V61.1962ZM170.86 106.321C170.751 106.321 170.662 106.232 170.662 106.122C170.662 106.012 170.751 105.923 170.86 105.923H178.017C178.126 105.923 178.215 106.012 178.215 106.122C178.215 106.232 178.126 106.321 178.017 106.321H170.86ZM68.8828 111.29V107.514H69.2803V111.29H80.0148V111.688H58.7446V111.29H68.8828Z" fill="#353535"/>
</svg>
